<?xml version="1.0" encoding="UTF-8" standalone="no"?>
<!-- Created with Inkscape (http://www.inkscape.org/) -->

<svg
   xmlns:dc="http://purl.org/dc/elements/1.1/"
   xmlns:cc="http://creativecommons.org/ns#"
   xmlns:rdf="http://www.w3.org/1999/02/22-rdf-syntax-ns#"
   xmlns:svg="http://www.w3.org/2000/svg"
   xmlns="http://www.w3.org/2000/svg"
   xmlns:sodipodi="http://sodipodi.sourceforge.net/DTD/sodipodi-0.dtd"
   xmlns:inkscape="http://www.inkscape.org/namespaces/inkscape"
   width="644"
   height="84"
   viewBox="0 0 644.00001 84"
   id="svg2"
   version="1.1"
   inkscape:version="0.91 r13725"
   sodipodi:docname="logo-w.svg">
  <title
     id="title4159">ludumdare-logo-w</title>
  <defs
     id="defs4" />
  <sodipodi:namedview
     id="base"
     pagecolor="#ffffff"
     bordercolor="#666666"
     borderopacity="1.0"
     inkscape:pageopacity="0.0"
     inkscape:pageshadow="2"
     inkscape:zoom="0.95127959"
     inkscape:cx="359.424"
     inkscape:cy="-75.047283"
     inkscape:document-units="px"
     inkscape:current-layer="layer1"
     showgrid="false"
     units="px"
     inkscape:window-width="1366"
     inkscape:window-height="744"
     inkscape:window-x="0"
     inkscape:window-y="24"
     inkscape:window-maximized="1">
    <inkscape:grid
       type="xygrid"
       id="grid4161" />
  </sodipodi:namedview>
  <metadata
     id="metadata7">
    <rdf:RDF>
      <cc:Work
         rdf:about="">
        <dc:format>image/svg+xml</dc:format>
        <dc:type
           rdf:resource="http://purl.org/dc/dcmitype/StillImage" />
        <dc:title>ludum-dare</dc:title>
      </cc:Work>
    </rdf:RDF>
  </metadata>
  <g
     inkscape:label="Layer 1"
     inkscape:groupmode="layer"
     id="layer1"
     transform="translate(0,-968.36214)">
    <path
       inkscape:connector-curvature="0"
       id="path4141"
       style="fill:white"
       d="m 1.9999981,1048.4627 57.6515969,0 0,-28.2671 -28.602348,0 0,-49.94237 -29.0492489,0 0,78.20947 z" />
    <path
       inkscape:connector-curvature="0"
       id="path4143"
       style="fill:white"
       d="m 99.108994,1016.732 c 0,7.821 -9.720325,7.821 -9.720325,0 l 0,-30.50168 0,-0.44691 -27.708514,0 0,32.06589 c 0,43.2387 65.137355,43.2387 65.137355,0 l 0,-32.06589 -27.708516,0 0,0.44691 0,30.50168 z" />
    <path
       style="fill:white"
       d="m 168.5293,970.25276 0,13.5586 -6,0.1914 c -18.18299,0.1624 -32.76953,14.95343 -32.76953,33.17574 0,18.3234 14.74694,33.1836 33.07031,33.1836 18.32338,0 33.18359,-14.8602 33.18359,-33.1836 l 0,-46.92574 -27.48437,0 z m -6,41.24414 6,0 0,5.6816 c -2e-5,3.1284 -2.45911,5.6993 -5.69922,5.6993 -3.12838,0 -5.58594,-2.5709 -5.58594,-5.6993 0,-3.0265 2.30252,-5.522 5.28516,-5.6816 z"
       id="path4145"
       inkscape:connector-curvature="0" />
    <path
       inkscape:connector-curvature="0"
       id="path4147"
       style="fill:white"
       d="m 236.58666,1016.732 c 0,7.821 -9.72033,7.821 -9.72033,0 l 0,-30.50168 0,-0.44691 -27.70851,0 0,32.06589 c 0,43.2387 65.13735,43.2387 65.13735,0 l 0,-32.06589 -27.70851,0 0,0.44691 0,30.50168 z" />
    <path
       inkscape:connector-curvature="0"
       id="path4149"
       style="fill:white"
       d="m 330.25127,1016.732 c 0,-6.9271 8.71477,-6.8154 8.71477,-0.1117 l 0,31.3955 0,0.4469 27.48506,0 0,-32.9597 c 0,-22.90419 -16.53572,-31.73069 -32.17763,-31.61896 -6.14503,0.11172 -12.96043,2.34628 -17.31782,7.03885 -5.02775,-5.02775 -11.39624,-7.03885 -17.653,-7.03885 -15.53018,0 -31.84245,8.15613 -31.84245,31.61896 l 0,32.9597 27.48506,0 0,-31.8424 c 0,-6.7037 8.60305,-6.8154 8.60305,0.1117 l 0,31.7307 26.70296,0 0,-31.7307 z" />
    <path
       inkscape:connector-curvature="0"
       id="path4151"
       d="m 389.40832,1048.4627 c 14.07771,0 23.12767,0 37.09365,0 50.50101,0 50.50101,-78.20947 0,-78.20947 -13.96598,0 -23.01594,0 -37.09365,0 0,26.0326 0,52.17697 0,78.20947 z m 28.93752,-30.2782 c 0,-4.8043 0,-13.1839 0,-17.9882 l 8.71477,0 c 9.94378,0 10.05551,17.9882 0,17.9882 l -8.71477,0 z" />
    <path
       d="m 498.94727,983.88362 c -12.56007,-0.17879 -24.71378,7.77743 -29.60352,19.34178 -5.11286,11.3948 -2.76972,25.6319 5.79297,34.7403 6.4157,7.1378 16.10855,10.9705 25.66016,10.4863 1.20841,0 2.41658,0 3.625,0 l 0,0.01 26.81445,0 c -0.0409,-11.4554 0.0831,-22.9139 -0.0664,-34.3671 -0.64579,-12.787 -9.7352,-24.55669 -21.89258,-28.51762 -3.32002,-1.12424 -6.82531,-1.69524 -10.33007,-1.69336 z m -0.13086,26.72658 c 2.35881,0.016 4.74105,1.4822 5.35937,3.9277 0.35898,2.3729 0.27063,4.7894 0.23438,7.2012 -2.17556,0.014 -4.35195,0.016 -6.51954,-0.082 -4.23948,-0.616 -6.08765,-6.5054 -2.91015,-9.4082 1.01264,-1.1358 2.42065,-1.6483 3.83594,-1.6387 z"
       id="path4153"
       inkscape:connector-curvature="0" />
    <path
       inkscape:connector-curvature="0"
       id="path4155"
       d="m 564.13676,985.78341 c -17.54128,0 -29.83135,11.50797 -29.83135,29.04929 0,14.9715 0,18.6585 0,33.63 l 27.48506,0 c 0,-16.3122 0,-18.4351 0,-34.7473 0,-1.0056 0.55864,-1.6759 1.67592,-1.6759 l 10.61415,0 0,-26.25609 -9.94378,0 z" />
    <path
       d="m 608.94727,983.88362 c -12.56008,-0.17879 -24.71305,7.77675 -29.60279,19.34108 -5.14833,11.4682 -2.73461,25.8111 5.94851,34.9169 6.44915,7.0808 16.13737,10.8291 25.66348,10.3201 10.09329,0 20.18657,0 30.27986,0 -7.97526,-8.9101 -15.95052,-17.8203 -23.92578,-26.7304 7.8125,0 15.625,0 23.4375,0 2.36926,-12.6347 -3.68546,-26.31151 -14.70241,-32.9739 -5.09231,-3.19432 -11.09124,-4.8842 -17.09837,-4.87378 z m 0,26.70308 c 4.09124,-0.167 7.0783,4.8634 4.84643,8.3498 -1.94525,3.8851 -8.09485,3.4531 -9.85066,-0.3605 -1.67925,-3.4403 1.04715,-8.0998 5.00423,-7.9893 z"
       id="path4153-7"
       inkscape:connector-curvature="0" />
  </g>
</svg>
