<svg style="position: absolute; width: 0; height: 0; overflow: hidden;" version="1.1" xmlns="http://www.w3.org/2000/svg" xmlns:xlink="http://www.w3.org/1999/xlink">
<defs>
<symbol id="icon-pencil" viewBox="0 0 32 32">
<title>pencil</title>
<path class="path1" d="M27 0c2.761 0 5 2.239 5 5 0 1.126-0.372 2.164-1 3l-2 2-7-7 2-2c0.836-0.628 1.874-1 3-1zM2 23l-2 9 9-2 18.5-18.5-7-7-18.5 18.5zM22.362 11.362l-14 14-1.724-1.724 14-14 1.724 1.724z"></path>
</symbol>
<symbol id="icon-image" viewBox="0 0 32 32">
<title>image</title>
<path class="path1" d="M29.996 4c0.001 0.001 0.003 0.002 0.004 0.004v23.993c-0.001 0.001-0.002 0.003-0.004 0.004h-27.993c-0.001-0.001-0.003-0.002-0.004-0.004v-23.993c0.001-0.001 0.002-0.003 0.004-0.004h27.993zM30 2h-28c-1.1 0-2 0.9-2 2v24c0 1.1 0.9 2 2 2h28c1.1 0 2-0.9 2-2v-24c0-1.1-0.9-2-2-2v0z"></path>
<path class="path2" d="M26 9c0 1.657-1.343 3-3 3s-3-1.343-3-3 1.343-3 3-3 3 1.343 3 3z"></path>
<path class="path3" d="M28 26h-24v-4l7-12 8 10h2l7-6z"></path>
</symbol>
<symbol id="icon-music" viewBox="0 0 32 32">
<title>music</title>
<path class="path1" d="M30 0h2v23c0 2.761-3.134 5-7 5s-7-2.239-7-5c0-2.761 3.134-5 7-5 1.959 0 3.729 0.575 5 1.501v-11.501l-16 3.556v15.444c0 2.761-3.134 5-7 5s-7-2.239-7-5c0-2.761 3.134-5 7-5 1.959 0 3.729 0.575 5 1.501v-19.501l18-4z"></path>
</symbol>
<symbol id="icon-bullhorn" viewBox="0 0 32 32">
<title>bullhorn</title>
<path class="path1" d="M32 13.414c0-6.279-1.837-11.373-4.109-11.413 0.009-0 0.018-0.001 0.027-0.001h-2.592c0 0-6.088 4.573-14.851 6.367-0.268 1.415-0.438 3.102-0.438 5.047s0.171 3.631 0.438 5.047c8.763 1.794 14.851 6.367 14.851 6.367h2.592c-0.009 0-0.018-0.001-0.027-0.001 2.272-0.040 4.109-5.134 4.109-11.413zM27.026 23.102c-0.293 0-0.61-0.304-0.773-0.486-0.395-0.439-0.775-1.124-1.1-1.979-0.727-1.913-1.127-4.478-1.127-7.223s0.4-5.309 1.127-7.223c0.325-0.855 0.705-1.54 1.1-1.979 0.163-0.182 0.48-0.486 0.773-0.486s0.61 0.304 0.773 0.486c0.395 0.439 0.775 1.124 1.1 1.979 0.727 1.913 1.127 4.479 1.127 7.223s-0.4 5.309-1.127 7.223c-0.325 0.855-0.705 1.54-1.1 1.979-0.163 0.181-0.48 0.486-0.773 0.486zM7.869 13.414c0-1.623 0.119-3.201 0.345-4.659-1.48 0.205-2.779 0.323-4.386 0.323-2.096 0-2.096 0-2.096 0l-1.733 2.959v2.755l1.733 2.959c0 0 0 0 2.096 0 1.606 0 2.905 0.118 4.386 0.323-0.226-1.458-0.345-3.036-0.345-4.659zM11.505 20.068l-4-0.766 2.558 10.048c0.132 0.52 0.648 0.782 1.146 0.583l3.705-1.483c0.498-0.199 0.698-0.749 0.444-1.221l-3.853-7.161zM27.026 17.148c-0.113 0-0.235-0.117-0.298-0.187-0.152-0.169-0.299-0.433-0.424-0.763-0.28-0.738-0.434-1.726-0.434-2.784s0.154-2.046 0.434-2.784c0.125-0.33 0.272-0.593 0.424-0.763 0.063-0.070 0.185-0.187 0.298-0.187s0.235 0.117 0.298 0.187c0.152 0.169 0.299 0.433 0.424 0.763 0.28 0.737 0.434 1.726 0.434 2.784s-0.154 2.046-0.434 2.784c-0.125 0.33-0.272 0.593-0.424 0.763-0.063 0.070-0.185 0.187-0.298 0.187z"></path>
</symbol>
<symbol id="icon-file-empty" viewBox="0 0 32 32">
<title>file-empty</title>
<path class="path1" d="M28.681 7.159c-0.694-0.947-1.662-2.053-2.724-3.116s-2.169-2.030-3.116-2.724c-1.612-1.182-2.393-1.319-2.841-1.319h-15.5c-1.378 0-2.5 1.121-2.5 2.5v27c0 1.378 1.122 2.5 2.5 2.5h23c1.378 0 2.5-1.122 2.5-2.5v-19.5c0-0.448-0.137-1.23-1.319-2.841zM24.543 5.457c0.959 0.959 1.712 1.825 2.268 2.543h-4.811v-4.811c0.718 0.556 1.584 1.309 2.543 2.268zM28 29.5c0 0.271-0.229 0.5-0.5 0.5h-23c-0.271 0-0.5-0.229-0.5-0.5v-27c0-0.271 0.229-0.5 0.5-0.5 0 0 15.499-0 15.5 0v7c0 0.552 0.448 1 1 1h7v19.5z"></path>
</symbol>
<symbol id="icon-file-text" viewBox="0 0 32 32">
<title>file-text</title>
<path class="path1" d="M28.681 7.159c-0.694-0.947-1.662-2.053-2.724-3.116s-2.169-2.030-3.116-2.724c-1.612-1.182-2.393-1.319-2.841-1.319h-15.5c-1.378 0-2.5 1.121-2.5 2.5v27c0 1.378 1.122 2.5 2.5 2.5h23c1.378 0 2.5-1.122 2.5-2.5v-19.5c0-0.448-0.137-1.23-1.319-2.841zM24.543 5.457c0.959 0.959 1.712 1.825 2.268 2.543h-4.811v-4.811c0.718 0.556 1.584 1.309 2.543 2.268zM28 29.5c0 0.271-0.229 0.5-0.5 0.5h-23c-0.271 0-0.5-0.229-0.5-0.5v-27c0-0.271 0.229-0.5 0.5-0.5 0 0 15.499-0 15.5 0v7c0 0.552 0.448 1 1 1h7v19.5z"></path>
<path class="path2" d="M23 26h-14c-0.552 0-1-0.448-1-1s0.448-1 1-1h14c0.552 0 1 0.448 1 1s-0.448 1-1 1z"></path>
<path class="path3" d="M23 22h-14c-0.552 0-1-0.448-1-1s0.448-1 1-1h14c0.552 0 1 0.448 1 1s-0.448 1-1 1z"></path>
<path class="path4" d="M23 18h-14c-0.552 0-1-0.448-1-1s0.448-1 1-1h14c0.552 0 1 0.448 1 1s-0.448 1-1 1z"></path>
</symbol>
<symbol id="icon-file-picture" viewBox="0 0 32 32">
<title>file-picture</title>
<path class="path1" d="M26 28h-20v-4l6-10 8.219 10 5.781-4v8z"></path>
<path class="path2" d="M26 15c0 1.657-1.343 3-3 3s-3-1.343-3-3 1.343-3 3-3c1.657 0 3 1.343 3 3z"></path>
<path class="path3" d="M28.681 7.159c-0.694-0.947-1.662-2.053-2.724-3.116s-2.169-2.030-3.116-2.724c-1.612-1.182-2.393-1.319-2.841-1.319h-15.5c-1.378 0-2.5 1.121-2.5 2.5v27c0 1.378 1.122 2.5 2.5 2.5h23c1.378 0 2.5-1.122 2.5-2.5v-19.5c0-0.448-0.137-1.23-1.319-2.841zM24.543 5.457c0.959 0.959 1.712 1.825 2.268 2.543h-4.811v-4.811c0.718 0.556 1.584 1.309 2.543 2.268zM28 29.5c0 0.271-0.229 0.5-0.5 0.5h-23c-0.271 0-0.5-0.229-0.5-0.5v-27c0-0.271 0.229-0.5 0.5-0.5 0 0 15.499-0 15.5 0v7c0 0.552 0.448 1 1 1h7v19.5z"></path>
</symbol>
<symbol id="icon-file-music" viewBox="0 0 32 32">
<title>file-music</title>
<path class="path1" d="M28.681 7.159c-0.694-0.947-1.662-2.053-2.724-3.116s-2.169-2.030-3.116-2.724c-1.612-1.182-2.393-1.319-2.841-1.319h-15.5c-1.378 0-2.5 1.121-2.5 2.5v27c0 1.378 1.121 2.5 2.5 2.5h23c1.378 0 2.5-1.122 2.5-2.5v-19.5c0-0.448-0.137-1.23-1.319-2.841v0zM24.543 5.457c0.959 0.959 1.712 1.825 2.268 2.543h-4.811v-4.811c0.718 0.556 1.584 1.309 2.543 2.268v0zM28 29.5c0 0.271-0.229 0.5-0.5 0.5h-23c-0.271 0-0.5-0.229-0.5-0.5v-27c0-0.271 0.229-0.5 0.5-0.5 0 0 15.499-0 15.5 0v7c0 0.552 0.448 1 1 1h7v19.5z"></path>
<path class="path2" d="M23.634 12.227c-0.232-0.19-0.536-0.266-0.83-0.207l-10 2c-0.467 0.094-0.804 0.504-0.804 0.981v7.402c-0.588-0.255-1.271-0.402-2-0.402-2.209 0-4 1.343-4 3s1.791 3 4 3 4-1.343 4-3v-7.18l8-1.6v4.183c-0.588-0.255-1.271-0.402-2-0.402-2.209 0-4 1.343-4 3s1.791 3 4 3 4-1.343 4-3v-10c0-0.3-0.134-0.583-0.366-0.773z"></path>
</symbol>
<symbol id="icon-file-video" viewBox="0 0 32 32">
<title>file-video</title>
<path class="path1" d="M28.681 7.159c-0.694-0.947-1.662-2.053-2.724-3.116s-2.169-2.030-3.116-2.724c-1.612-1.182-2.394-1.319-2.841-1.319h-15.5c-1.378 0-2.5 1.121-2.5 2.5v27c0 1.378 1.121 2.5 2.5 2.5h23c1.378 0 2.5-1.122 2.5-2.5v-19.5c0-0.448-0.137-1.23-1.319-2.841v0 0zM24.543 5.457c0.959 0.959 1.712 1.825 2.268 2.543h-4.811v-4.811c0.718 0.556 1.584 1.309 2.543 2.268v0 0zM28 29.5c0 0.271-0.229 0.5-0.5 0.5h-23c-0.271 0-0.5-0.229-0.5-0.5v-27c0-0.271 0.229-0.5 0.5-0.5 0 0 15.499-0 15.5 0v7c0 0.552 0.448 1 1 1h7v19.5z"></path>
<path class="path2" d="M8 16h10v10h-10v-10z"></path>
<path class="path3" d="M18 20l6-4v10l-6-4z"></path>
</symbol>
<symbol id="icon-file-zip" viewBox="0 0 32 32">
<title>file-zip</title>
<path class="path1" d="M28.681 7.159c-0.694-0.947-1.662-2.053-2.724-3.116s-2.169-2.030-3.116-2.724c-1.612-1.182-2.393-1.319-2.841-1.319h-15.5c-1.378 0-2.5 1.121-2.5 2.5v27c0 1.378 1.121 2.5 2.5 2.5h23c1.378 0 2.5-1.122 2.5-2.5v-19.5c0-0.448-0.137-1.23-1.319-2.841v0 0zM24.543 5.457c0.959 0.959 1.712 1.825 2.268 2.543h-4.811v-4.811c0.718 0.556 1.584 1.309 2.543 2.268v0 0zM28 29.5c0 0.271-0.229 0.5-0.5 0.5h-23c-0.271 0-0.5-0.229-0.5-0.5v-27c0-0.271 0.229-0.5 0.5-0.5 0 0 15.499-0 15.5 0v7c0 0.552 0.448 1 1 1h7v19.5z"></path>
<path class="path2" d="M8 2h4v2h-4v-2z"></path>
<path class="path3" d="M12 4h4v2h-4v-2z"></path>
<path class="path4" d="M8 6h4v2h-4v-2z"></path>
<path class="path5" d="M12 8h4v2h-4v-2z"></path>
<path class="path6" d="M8 10h4v2h-4v-2z"></path>
<path class="path7" d="M12 12h4v2h-4v-2z"></path>
<path class="path8" d="M8 14h4v2h-4v-2z"></path>
<path class="path9" d="M12 16h4v2h-4v-2z"></path>
<path class="path10" d="M8 26.5c0 0.825 0.675 1.5 1.5 1.5h5c0.825 0 1.5-0.675 1.5-1.5v-5c0-0.825-0.675-1.5-1.5-1.5h-2.5v-2h-4v8.5zM14 24v2h-4v-2h4z"></path>
</symbol>
<symbol id="icon-upload" viewBox="0 0 32 32">
<title>upload</title>
<path class="path1" d="M18 8l-4-4h-14v26h32v-22h-14zM16 15l7 7h-5v8h-4v-8h-5l7-7z"></path>
</symbol>
<symbol id="icon-envelope" viewBox="0 0 32 32">
<title>envelope</title>
<path class="path1" d="M29 4h-26c-1.65 0-3 1.35-3 3v20c0 1.65 1.35 3 3 3h26c1.65 0 3-1.35 3-3v-20c0-1.65-1.35-3-3-3zM12.461 17.199l-8.461 6.59v-15.676l8.461 9.086zM5.512 8h20.976l-10.488 7.875-10.488-7.875zM12.79 17.553l3.21 3.447 3.21-3.447 6.58 8.447h-19.579l6.58-8.447zM19.539 17.199l8.461-9.086v15.676l-8.461-6.59z"></path>
</symbol>
<symbol id="icon-pushpin" viewBox="0 0 32 32">
<title>pushpin</title>
<path class="path1" d="M17 0l-3 3 3 3-7 8h-7l5.5 5.5-8.5 11.269v1.231h1.231l11.269-8.5 5.5 5.5v-7l8-7 3 3 3-3-15-15zM14 17l-2-2 7-7 2 2-7 7z"></path>
</symbol>
<symbol id="icon-calendar" viewBox="0 0 32 32">
<title>calendar</title>
<path class="path1" d="M10 12h4v4h-4zM16 12h4v4h-4zM22 12h4v4h-4zM4 24h4v4h-4zM10 24h4v4h-4zM16 24h4v4h-4zM10 18h4v4h-4zM16 18h4v4h-4zM22 18h4v4h-4zM4 18h4v4h-4zM26 0v2h-4v-2h-14v2h-4v-2h-4v32h30v-32h-4zM28 30h-26v-22h26v22z"></path>
</symbol>
<symbol id="icon-tv" viewBox="0 0 32 32">
<title>tv</title>
<path class="path1" d="M30.662 9.003c-2.775-0.399-5.731-0.688-8.815-0.851l5.153-5.153-2-2-7.017 7.017c-0.656-0.011-1.317-0.017-1.983-0.017v0l-8-8-2 2 6.069 6.069c-3.779 0.133-7.386 0.454-10.731 0.935-0.86 3.366-1.338 7.086-1.338 10.997s0.477 7.63 1.338 10.997c4.489 0.645 9.448 1.003 14.662 1.003s10.173-0.358 14.662-1.003c0.86-3.366 1.338-7.086 1.338-10.997s-0.477-7.63-1.338-10.997zM26.997 27.331c-3.367 0.43-7.086 0.669-10.997 0.669s-7.63-0.239-10.997-0.669c-0.645-2.244-1.003-4.724-1.003-7.331s0.358-5.087 1.003-7.331c3.366-0.43 7.086-0.669 10.997-0.669s7.63 0.239 10.996 0.669c0.645 2.244 1.004 4.724 1.004 7.331s-0.358 5.087-1.003 7.331z"></path>
</symbol>
<symbol id="icon-bubble" viewBox="0 0 32 32">
<title>bubble</title>
<path class="path1" d="M16 2c8.837 0 16 5.82 16 13s-7.163 13-16 13c-0.849 0-1.682-0.054-2.495-0.158-3.437 3.437-7.539 4.053-11.505 4.144v-0.841c2.142-1.049 4-2.961 4-5.145 0-0.305-0.024-0.604-0.068-0.897-3.619-2.383-5.932-6.024-5.932-10.103 0-7.18 7.163-13 16-13z"></path>
</symbol>
<symbol id="icon-bubbles" viewBox="0 0 36 32">
<title>bubbles</title>
<path class="path1" d="M34 28.161c0 1.422 0.813 2.653 2 3.256v0.498c-0.332 0.045-0.671 0.070-1.016 0.070-2.125 0-4.042-0.892-5.398-2.321-0.819 0.218-1.688 0.336-2.587 0.336-4.971 0-9-3.582-9-8s4.029-8 9-8c4.971 0 9 3.582 9 8 0 1.73-0.618 3.331-1.667 4.64-0.213 0.463-0.333 0.979-0.333 1.522zM16 0c8.702 0 15.781 5.644 15.995 12.672-1.537-0.685-3.237-1.047-4.995-1.047-2.986 0-5.807 1.045-7.942 2.943-2.214 1.968-3.433 4.607-3.433 7.432 0 1.396 0.298 2.747 0.867 3.993-0.163 0.004-0.327 0.007-0.492 0.007-0.849 0-1.682-0.054-2.495-0.158-3.437 3.437-7.539 4.053-11.505 4.144v-0.841c2.142-1.049 4-2.961 4-5.145 0-0.305-0.024-0.604-0.068-0.897-3.619-2.383-5.932-6.024-5.932-10.103 0-7.18 7.163-13 16-13z"></path>
</symbol>
<symbol id="icon-user" viewBox="0 0 32 32">
<title>user</title>
<path class="path1" d="M18 22.082v-1.649c2.203-1.241 4-4.337 4-7.432 0-4.971 0-9-6-9s-6 4.029-6 9c0 3.096 1.797 6.191 4 7.432v1.649c-6.784 0.555-12 3.888-12 7.918h28c0-4.030-5.216-7.364-12-7.918z"></path>
</symbol>
<symbol id="icon-users" viewBox="0 0 36 32">
<title>users</title>
<path class="path1" d="M24 24.082v-1.649c2.203-1.241 4-4.337 4-7.432 0-4.971 0-9-6-9s-6 4.029-6 9c0 3.096 1.797 6.191 4 7.432v1.649c-6.784 0.555-12 3.888-12 7.918h28c0-4.030-5.216-7.364-12-7.918z"></path>
<path class="path2" d="M10.225 24.854c1.728-1.13 3.877-1.989 6.243-2.513-0.47-0.556-0.897-1.176-1.265-1.844-0.95-1.726-1.453-3.627-1.453-5.497 0-2.689 0-5.228 0.956-7.305 0.928-2.016 2.598-3.265 4.976-3.734-0.529-2.39-1.936-3.961-5.682-3.961-6 0-6 4.029-6 9 0 3.096 1.797 6.191 4 7.432v1.649c-6.784 0.555-12 3.888-12 7.918h8.719c0.454-0.403 0.956-0.787 1.506-1.146z"></path>
</symbol>
<symbol id="icon-user-plus" viewBox="0 0 32 32">
<title>user-plus</title>
<path class="path1" d="M12 23c0-4.726 2.996-8.765 7.189-10.319 0.509-1.142 0.811-2.411 0.811-3.681 0-4.971 0-9-6-9s-6 4.029-6 9c0 3.096 1.797 6.191 4 7.432v1.649c-6.784 0.555-12 3.888-12 7.918h12.416c-0.271-0.954-0.416-1.96-0.416-3z"></path>
<path class="path2" d="M23 14c-4.971 0-9 4.029-9 9s4.029 9 9 9c4.971 0 9-4.029 9-9s-4.029-9-9-9zM28 24h-4v4h-2v-4h-4v-2h4v-4h2v4h4v2z"></path>
</symbol>
<symbol id="icon-user-minus" viewBox="0 0 32 32">
<title>user-minus</title>
<path class="path1" d="M12 23c0-4.726 2.996-8.765 7.189-10.319 0.509-1.142 0.811-2.411 0.811-3.681 0-4.971 0-9-6-9s-6 4.029-6 9c0 3.096 1.797 6.191 4 7.432v1.649c-6.784 0.555-12 3.888-12 7.918h12.416c-0.271-0.954-0.416-1.96-0.416-3z"></path>
<path class="path2" d="M23 14c-4.971 0-9 4.029-9 9s4.029 9 9 9c4.971 0 9-4.029 9-9s-4.029-9-9-9zM28 24h-10v-2h10v2z"></path>
</symbol>
<symbol id="icon-user-check" viewBox="0 0 32 32">
<title>user-check</title>
<path class="path1" d="M30 19l-9 9-3-3-2 2 5 5 11-11z"></path>
<path class="path2" d="M14 24h10v-3.598c-2.101-1.225-4.885-2.066-8-2.321v-1.649c2.203-1.242 4-4.337 4-7.432 0-4.971 0-9-6-9s-6 4.029-6 9c0 3.096 1.797 6.191 4 7.432v1.649c-6.784 0.555-12 3.888-12 7.918h14v-2z"></path>
</symbol>
<symbol id="icon-quotes-left" viewBox="0 0 32 32">
<title>quotes-left</title>
<path class="path1" d="M7.031 14c3.866 0 7 3.134 7 7s-3.134 7-7 7-7-3.134-7-7l-0.031-1c0-7.732 6.268-14 14-14v4c-2.671 0-5.182 1.040-7.071 2.929-0.364 0.364-0.695 0.751-0.995 1.157 0.357-0.056 0.724-0.086 1.097-0.086zM25.031 14c3.866 0 7 3.134 7 7s-3.134 7-7 7-7-3.134-7-7l-0.031-1c0-7.732 6.268-14 14-14v4c-2.671 0-5.182 1.040-7.071 2.929-0.364 0.364-0.695 0.751-0.995 1.157 0.358-0.056 0.724-0.086 1.097-0.086z"></path>
</symbol>
<symbol id="icon-quotes-right" viewBox="0 0 32 32">
<title>quotes-right</title>
<path class="path1" d="M25 20c-3.866 0-7-3.134-7-7s3.134-7 7-7 7 3.134 7 7l0.031 1c0 7.732-6.268 14-14 14v-4c2.671 0 5.182-1.040 7.071-2.929 0.364-0.364 0.695-0.75 0.995-1.157-0.357 0.056-0.724 0.086-1.097 0.086zM7 20c-3.866 0-7-3.134-7-7s3.134-7 7-7 7 3.134 7 7l0.031 1c0 7.732-6.268 14-14 14v-4c2.671 0 5.182-1.040 7.071-2.929 0.364-0.364 0.695-0.75 0.995-1.157-0.357 0.056-0.724 0.086-1.097 0.086z"></path>
</symbol>
<symbol id="icon-spinner" viewBox="0 0 32 32">
<title>spinner</title>
<path class="path1" d="M6 16c0-0.381 0.022-0.756 0.063-1.126l-5.781-1.878c-0.185 0.973-0.283 1.977-0.283 3.004 0 4.601 1.943 8.748 5.052 11.666l3.571-4.916c-1.629-1.779-2.623-4.149-2.623-6.751zM26 16c0 2.602-0.994 4.972-2.623 6.751l3.571 4.916c3.109-2.919 5.052-7.065 5.052-11.666 0-1.027-0.098-2.031-0.283-3.004l-5.781 1.878c0.041 0.37 0.063 0.745 0.063 1.126zM18 6.2c2.873 0.583 5.298 2.398 6.702 4.87l5.781-1.878c-2.287-4.857-6.945-8.377-12.482-9.067v6.076zM7.298 11.070c1.403-2.471 3.829-4.286 6.702-4.87v-6.076c-5.537 0.691-10.195 4.21-12.482 9.067l5.78 1.878zM20.142 25.104c-1.262 0.575-2.665 0.896-4.142 0.896s-2.88-0.321-4.142-0.896l-3.572 4.916c2.288 1.261 4.917 1.98 7.714 1.98s5.426-0.719 7.714-1.98l-3.572-4.916z"></path>
</symbol>
<symbol id="icon-search" viewBox="0 0 32 32">
<title>search</title>
<path class="path1" d="M31.008 27.231l-7.58-6.447c-0.784-0.705-1.622-1.029-2.299-0.998 1.789-2.096 2.87-4.815 2.87-7.787 0-6.627-5.373-12-12-12s-12 5.373-12 12 5.373 12 12 12c2.972 0 5.691-1.081 7.787-2.87-0.031 0.677 0.293 1.515 0.998 2.299l6.447 7.58c1.104 1.226 2.907 1.33 4.007 0.23s0.997-2.903-0.23-4.007zM12 20c-4.418 0-8-3.582-8-8s3.582-8 8-8 8 3.582 8 8-3.582 8-8 8z"></path>
</symbol>
<symbol id="icon-enlarge" viewBox="0 0 32 32">
<title>enlarge</title>
<path class="path1" d="M32 0h-13l5 5-6 6 3 3 6-6 5 5z"></path>
<path class="path2" d="M32 32v-13l-5 5-6-6-3 3 6 6-5 5z"></path>
<path class="path3" d="M0 32h13l-5-5 6-6-3-3-6 6-5-5z"></path>
<path class="path4" d="M0 0v13l5-5 6 6 3-3-6-6 5-5z"></path>
</symbol>
<symbol id="icon-shrink" viewBox="0 0 32 32">
<title>shrink</title>
<path class="path1" d="M18 14h13l-5-5 6-6-3-3-6 6-5-5z"></path>
<path class="path2" d="M18 18v13l5-5 6 6 3-3-6-6 5-5z"></path>
<path class="path3" d="M14 18h-13l5 5-6 6 3 3 6-6 5 5z"></path>
<path class="path4" d="M14 14v-13l-5 5-6-6-3 3 6 6-5 5z"></path>
</symbol>
<symbol id="icon-key" viewBox="0 0 32 32">
<title>key</title>
<path class="path1" d="M22 0c-5.523 0-10 4.477-10 10 0 0.626 0.058 1.238 0.168 1.832l-12.168 12.168v6c0 1.105 0.895 2 2 2h2v-2h4v-4h4v-4h4l2.595-2.595c1.063 0.385 2.209 0.595 3.405 0.595 5.523 0 10-4.477 10-10s-4.477-10-10-10zM24.996 10.004c-1.657 0-3-1.343-3-3s1.343-3 3-3 3 1.343 3 3-1.343 3-3 3z"></path>
</symbol>
<symbol id="icon-cog" viewBox="0 0 32 32">
<title>cog</title>
<path class="path1" d="M29.181 19.070c-1.679-2.908-0.669-6.634 2.255-8.328l-3.145-5.447c-0.898 0.527-1.943 0.829-3.058 0.829-3.361 0-6.085-2.742-6.085-6.125h-6.289c0.008 1.044-0.252 2.103-0.811 3.070-1.679 2.908-5.411 3.897-8.339 2.211l-3.144 5.447c0.905 0.515 1.689 1.268 2.246 2.234 1.676 2.903 0.672 6.623-2.241 8.319l3.145 5.447c0.895-0.522 1.935-0.82 3.044-0.82 3.35 0 6.067 2.725 6.084 6.092h6.289c-0.003-1.034 0.259-2.080 0.811-3.038 1.676-2.903 5.399-3.894 8.325-2.219l3.145-5.447c-0.899-0.515-1.678-1.266-2.232-2.226zM16 22.479c-3.578 0-6.479-2.901-6.479-6.479s2.901-6.479 6.479-6.479c3.578 0 6.479 2.901 6.479 6.479s-2.901 6.479-6.479 6.479z"></path>
</symbol>
<symbol id="icon-bug" viewBox="0 0 32 32">
<title>bug</title>
<path class="path1" d="M32 18v-2h-6.040c-0.183-2.271-0.993-4.345-2.24-6.008h5.061l2.189-8.758-1.94-0.485-1.811 7.242h-5.459c-0.028-0.022-0.056-0.043-0.084-0.064 0.21-0.609 0.324-1.263 0.324-1.944 0-3.305-2.686-5.984-6-5.984s-6 2.679-6 5.984c0 0.68 0.114 1.334 0.324 1.944-0.028 0.021-0.056 0.043-0.084 0.064h-5.459l-1.811-7.242-1.94 0.485 2.189 8.758h5.061c-1.246 1.663-2.056 3.736-2.24 6.008h-6.040v2h6.043c0.119 1.427 0.485 2.775 1.051 3.992h-3.875l-2.189 8.757 1.94 0.485 1.811-7.243h3.511c1.834 2.439 4.606 3.992 7.708 3.992s5.874-1.554 7.708-3.992h3.511l1.811 7.243 1.94-0.485-2.189-8.757h-3.875c0.567-1.217 0.932-2.565 1.051-3.992h6.043z"></path>
</symbol>
<symbol id="icon-stats" viewBox="0 0 32 32">
<title>stats</title>
<path class="path1" d="M4 28h28v4h-32v-32h4zM9 26c-1.657 0-3-1.343-3-3s1.343-3 3-3c0.088 0 0.176 0.005 0.262 0.012l3.225-5.375c-0.307-0.471-0.487-1.033-0.487-1.638 0-1.657 1.343-3 3-3s3 1.343 3 3c0 0.604-0.179 1.167-0.487 1.638l3.225 5.375c0.086-0.007 0.174-0.012 0.262-0.012 0.067 0 0.133 0.003 0.198 0.007l5.324-9.316c-0.329-0.482-0.522-1.064-0.522-1.691 0-1.657 1.343-3 3-3s3 1.343 3 3c0 1.657-1.343 3-3 3-0.067 0-0.133-0.003-0.198-0.007l-5.324 9.316c0.329 0.481 0.522 1.064 0.522 1.691 0 1.657-1.343 3-3 3s-3-1.343-3-3c0-0.604 0.179-1.167 0.487-1.638l-3.225-5.375c-0.086 0.007-0.174 0.012-0.262 0.012s-0.176-0.005-0.262-0.012l-3.225 5.375c0.307 0.471 0.487 1.033 0.487 1.637 0 1.657-1.343 3-3 3z"></path>
</symbol>
<symbol id="icon-trophy" viewBox="0 0 32 32">
<title>trophy</title>
<path class="path1" d="M26 6v-4h-20v4h-6v4c0 3.314 2.686 6 6 6 0.627 0 1.232-0.096 1.801-0.275 1.443 2.063 3.644 3.556 6.199 4.075v6.2h-2c-2.209 0-4 1.791-4 4h16c0-2.209-1.791-4-4-4h-2v-6.2c2.555-0.519 4.756-2.012 6.199-4.075 0.568 0.179 1.173 0.275 1.801 0.275 3.314 0 6-2.686 6-6v-4h-6zM6 13.625c-1.999 0-3.625-1.626-3.625-3.625v-2h3.625v2c0 1.256 0.232 2.457 0.655 3.565-0.213 0.039-0.431 0.060-0.655 0.060zM29.625 10c0 1.999-1.626 3.625-3.625 3.625-0.224 0-0.442-0.021-0.655-0.060 0.423-1.107 0.655-2.309 0.655-3.565v-2h3.625v2z"></path>
</symbol>
<symbol id="icon-gift" viewBox="0 0 32 32">
<title>gift</title>
<path class="path1" d="M24.11 10c0.566-0.402 1.11-0.851 1.608-1.348 1.044-1.044 1.742-2.328 1.966-3.616 0.246-1.412-0.115-2.723-0.988-3.597-0.697-0.697-1.641-1.065-2.73-1.065-1.551 0-3.185 0.744-4.483 2.043-2.077 2.077-3.288 4.945-3.94 6.991-0.482-2.056-1.444-4.833-3.313-6.702-1.003-1.003-2.285-1.518-3.495-1.518-0.989 0-1.931 0.344-2.633 1.046-1.562 1.562-1.351 4.306 0.471 6.128 0.65 0.65 1.409 1.189 2.21 1.638h-6.782v8h2v14h24v-14h2v-8h-5.89zM21.073 4.007c0.866-0.866 1.948-1.384 2.892-1.384 0.334 0 0.803 0.070 1.139 0.406 0.813 0.813 0.357 2.697-0.977 4.031-1.373 1.373-3.221 2.318-4.826 2.939h-1.584c0.58-1.798 1.627-4.264 3.356-5.993zM7.31 5.028c-0.022-0.285-0.002-0.82 0.381-1.203 0.32-0.32 0.743-0.387 1.042-0.387v0c0.664 0 1.358 0.313 1.904 0.859 1.059 1.058 1.93 2.743 2.521 4.871 0.016 0.057 0.031 0.115 0.047 0.171-0.057-0.015-0.114-0.031-0.171-0.047-2.128-0.591-3.813-1.462-4.871-2.521-0.495-0.495-0.805-1.13-0.853-1.743zM14 30h-8v-13h8v13zM14 16h-10v-4h10v4zM26 30h-8v-13h8v13zM28 16h-10v-4h10v4z"></path>
</symbol>
<symbol id="icon-hammer" viewBox="0 0 32 32">
<title>hammer</title>
<path class="path1" d="M31.568 28.617l-17.145-15.608 0.798-0.8c0.653-0.655 1.006-1.501 1.060-2.363 0.031-0.014 0.063-0.028 0.092-0.045l3.218-2.013c0.435-0.512 0.404-1.321-0.071-1.797l-5.598-5.613c-0.475-0.476-1.281-0.508-1.792-0.071l-2.007 3.227c-0.016 0.030-0.031 0.061-0.045 0.093-0.859 0.054-1.703 0.408-2.356 1.063l-3.045 3.053c-0.653 0.655-1.006 1.501-1.060 2.363-0.031 0.014-0.063 0.029-0.093 0.045l-3.218 2.013c-0.436 0.512-0.404 1.321 0.071 1.797l5.598 5.613c0.475 0.476 1.281 0.508 1.792 0.071l2.007-3.227c0.017-0.030 0.031-0.061 0.045-0.093 0.859-0.054 1.703-0.408 2.356-1.063l0.884-0.887 15.566 17.191c0.451 0.498 1.147 0.579 1.546 0.178l1.574-1.578c0.399-0.4 0.319-1.098-0.178-1.55z"></path>
</symbol>
<symbol id="icon-fire" viewBox="0 0 32 32">
<title>fire</title>
<path class="path1" d="M10.031 32c-2.133-4.438-0.997-6.981 0.642-9.376 1.795-2.624 2.258-5.221 2.258-5.221s1.411 1.834 0.847 4.703c2.493-2.775 2.963-7.196 2.587-8.889 5.635 3.938 8.043 12.464 4.798 18.783 17.262-9.767 4.294-24.38 2.036-26.027 0.753 1.646 0.895 4.433-0.625 5.785-2.573-9.759-8.937-11.759-8.937-11.759 0.753 5.033-2.728 10.536-6.084 14.648-0.118-2.007-0.243-3.392-1.298-5.312-0.237 3.646-3.023 6.617-3.777 10.27-1.022 4.946 0.765 8.568 7.555 12.394z"></path>
</symbol>
<symbol id="icon-trash" viewBox="0 0 32 32">
<title>trash</title>
<path class="path1" d="M4 10v20c0 1.1 0.9 2 2 2h18c1.1 0 2-0.9 2-2v-20h-22zM10 28h-2v-14h2v14zM14 28h-2v-14h2v14zM18 28h-2v-14h2v14zM22 28h-2v-14h2v14z"></path>
<path class="path2" d="M26.5 4h-6.5v-2.5c0-0.825-0.675-1.5-1.5-1.5h-7c-0.825 0-1.5 0.675-1.5 1.5v2.5h-6.5c-0.825 0-1.5 0.675-1.5 1.5v2.5h26v-2.5c0-0.825-0.675-1.5-1.5-1.5zM18 4h-6v-1.975h6v1.975z"></path>
</symbol>
<symbol id="icon-clipboard" viewBox="0 0 32 32">
<title>clipboard</title>
<path class="path1" d="M29 4h-9c0-2.209-1.791-4-4-4s-4 1.791-4 4h-9c-0.552 0-1 0.448-1 1v26c0 0.552 0.448 1 1 1h26c0.552 0 1-0.448 1-1v-26c0-0.552-0.448-1-1-1zM16 2c1.105 0 2 0.895 2 2s-0.895 2-2 2c-1.105 0-2-0.895-2-2s0.895-2 2-2zM28 30h-24v-24h4v3c0 0.552 0.448 1 1 1h14c0.552 0 1-0.448 1-1v-3h4v24z"></path>
<path class="path2" d="M14 26.828l-6.414-7.414 1.828-1.828 4.586 3.586 8.586-7.586 1.829 1.828z"></path>
</symbol>
<symbol id="icon-list" viewBox="0 0 32 32">
<title>list</title>
<path class="path1" d="M12 2h20v4h-20v-4zM12 14h20v4h-20v-4zM12 26h20v4h-20v-4zM0 4c0-2.209 1.791-4 4-4s4 1.791 4 4c0 2.209-1.791 4-4 4s-4-1.791-4-4zM0 16c0-2.209 1.791-4 4-4s4 1.791 4 4c0 2.209-1.791 4-4 4s-4-1.791-4-4zM0 28c0-2.209 1.791-4 4-4s4 1.791 4 4c0 2.209-1.791 4-4 4s-4-1.791-4-4z"></path>
</symbol>
<symbol id="icon-earth" viewBox="0 0 32 32">
<title>earth</title>
<path class="path1" d="M16 0c-8.837 0-16 7.163-16 16s7.163 16 16 16 16-7.163 16-16-7.163-16-16-16zM16 30c-1.967 0-3.84-0.407-5.538-1.139l7.286-8.197c0.163-0.183 0.253-0.419 0.253-0.664v-3c0-0.552-0.448-1-1-1-3.531 0-7.256-3.671-7.293-3.707-0.188-0.188-0.442-0.293-0.707-0.293h-4c-0.552 0-1 0.448-1 1v6c0 0.379 0.214 0.725 0.553 0.894l3.447 1.724v5.871c-3.627-2.53-6-6.732-6-11.489 0-2.147 0.484-4.181 1.348-6h3.652c0.265 0 0.52-0.105 0.707-0.293l4-4c0.188-0.188 0.293-0.442 0.293-0.707v-2.419c1.268-0.377 2.61-0.581 4-0.581 2.2 0 4.281 0.508 6.134 1.412-0.13 0.109-0.256 0.224-0.376 0.345-1.133 1.133-1.757 2.64-1.757 4.243s0.624 3.109 1.757 4.243c1.139 1.139 2.663 1.758 4.239 1.758 0.099 0 0.198-0.002 0.297-0.007 0.432 1.619 1.211 5.833-0.263 11.635-0.014 0.055-0.022 0.109-0.026 0.163-2.541 2.596-6.084 4.208-10.004 4.208z"></path>
</symbol>
<symbol id="icon-link" viewBox="0 0 32 32">
<title>link</title>
<path class="path1" d="M13.757 19.868c-0.416 0-0.832-0.159-1.149-0.476-2.973-2.973-2.973-7.81 0-10.783l6-6c1.44-1.44 3.355-2.233 5.392-2.233s3.951 0.793 5.392 2.233c2.973 2.973 2.973 7.81 0 10.783l-2.743 2.743c-0.635 0.635-1.663 0.635-2.298 0s-0.635-1.663 0-2.298l2.743-2.743c1.706-1.706 1.706-4.481 0-6.187-0.826-0.826-1.925-1.281-3.094-1.281s-2.267 0.455-3.094 1.281l-6 6c-1.706 1.706-1.706 4.481 0 6.187 0.635 0.635 0.635 1.663 0 2.298-0.317 0.317-0.733 0.476-1.149 0.476z"></path>
<path class="path2" d="M8 31.625c-2.037 0-3.952-0.793-5.392-2.233-2.973-2.973-2.973-7.81 0-10.783l2.743-2.743c0.635-0.635 1.664-0.635 2.298 0s0.635 1.663 0 2.298l-2.743 2.743c-1.706 1.706-1.706 4.481 0 6.187 0.826 0.826 1.925 1.281 3.094 1.281s2.267-0.455 3.094-1.281l6-6c1.706-1.706 1.706-4.481 0-6.187-0.635-0.635-0.635-1.663 0-2.298s1.663-0.635 2.298 0c2.973 2.973 2.973 7.81 0 10.783l-6 6c-1.44 1.44-3.355 2.233-5.392 2.233z"></path>
</symbol>
<symbol id="icon-flag" viewBox="0 0 32 32">
<title>flag</title>
<path class="path1" d="M0 0h4v32h-4v-32z"></path>
<path class="path2" d="M26 20.094c2.582 0 4.83-0.625 6-1.547v-16c-1.17 0.922-3.418 1.547-6 1.547s-4.83-0.625-6-1.547v16c1.17 0.922 3.418 1.547 6 1.547z"></path>
<path class="path3" d="M19 1.016c-1.466-0.623-3.61-1.016-6-1.016-3.012 0-5.635 0.625-7 1.547v16c1.365-0.922 3.988-1.547 7-1.547 2.39 0 4.534 0.393 6 1.016v-16z"></path>
</symbol>
<symbol id="icon-bookmark" viewBox="0 0 32 32">
<title>bookmark</title>
<path class="path1" d="M6 0v32l10-10 10 10v-32z"></path>
</symbol>
<symbol id="icon-star-empty" viewBox="0 0 32 32">
<title>star-empty</title>
<path class="path1" d="M32 12.408l-11.056-1.607-4.944-10.018-4.944 10.018-11.056 1.607 8 7.798-1.889 11.011 9.889-5.199 9.889 5.199-1.889-11.011 8-7.798zM16 23.547l-6.983 3.671 1.334-7.776-5.65-5.507 7.808-1.134 3.492-7.075 3.492 7.075 7.807 1.134-5.65 5.507 1.334 7.776-6.983-3.671z"></path>
</symbol>
<symbol id="icon-star-half" viewBox="0 0 32 32">
<title>star-half</title>
<path class="path1" d="M32 12.408l-11.056-1.607-4.944-10.018-4.944 10.018-11.056 1.607 8 7.798-1.889 11.011 9.889-5.199 9.889 5.199-1.889-11.011 8-7.798zM16 23.547l-0.029 0.015 0.029-17.837 3.492 7.075 7.807 1.134-5.65 5.507 1.334 7.776-6.983-3.671z"></path>
</symbol>
<symbol id="icon-star-full" viewBox="0 0 32 32">
<title>star-full</title>
<path class="path1" d="M32 12.408l-11.056-1.607-4.944-10.018-4.944 10.018-11.056 1.607 8 7.798-1.889 11.011 9.889-5.199 9.889 5.199-1.889-11.011 8-7.798z"></path>
</symbol>
<symbol id="icon-heart" viewBox="0 0 32 32">
<title>heart</title>
<path class="path1" d="M23.6 2c-3.363 0-6.258 2.736-7.599 5.594-1.342-2.858-4.237-5.594-7.601-5.594-4.637 0-8.4 3.764-8.4 8.401 0 9.433 9.516 11.906 16.001 21.232 6.13-9.268 15.999-12.1 15.999-21.232 0-4.637-3.763-8.401-8.4-8.401z"></path>
</symbol>
<symbol id="icon-heart-broken" viewBox="0 0 32 32">
<title>heart-broken</title>
<path class="path1" d="M23.6 2c4.637 0 8.4 3.764 8.4 8.401 0 9.132-9.87 11.964-15.999 21.232-6.485-9.326-16.001-11.799-16.001-21.232 0-4.637 3.763-8.401 8.4-8.401 1.886 0 3.625 0.86 5.025 2.12l-2.425 3.88 7 4-4 10 11-12-7-4 1.934-2.901c1.107-0.68 2.35-1.099 3.665-1.099z"></path>
</symbol>
<symbol id="icon-warning" viewBox="0 0 32 32">
<title>warning</title>
<path class="path1" d="M16 2.899l13.409 26.726h-26.819l13.409-26.726zM16 0c-0.69 0-1.379 0.465-1.903 1.395l-13.659 27.222c-1.046 1.86-0.156 3.383 1.978 3.383h27.166c2.134 0 3.025-1.522 1.978-3.383h0l-13.659-27.222c-0.523-0.93-1.213-1.395-1.903-1.395v0z"></path>
<path class="path2" d="M18 26c0 1.105-0.895 2-2 2s-2-0.895-2-2c0-1.105 0.895-2 2-2s2 0.895 2 2z"></path>
<path class="path3" d="M16 22c-1.105 0-2-0.895-2-2v-6c0-1.105 0.895-2 2-2s2 0.895 2 2v6c0 1.105-0.895 2-2 2z"></path>
</symbol>
<symbol id="icon-notification" viewBox="0 0 32 32">
<title>notification</title>
<path class="path1" d="M16 3c-3.472 0-6.737 1.352-9.192 3.808s-3.808 5.72-3.808 9.192c0 3.472 1.352 6.737 3.808 9.192s5.72 3.808 9.192 3.808c3.472 0 6.737-1.352 9.192-3.808s3.808-5.72 3.808-9.192c0-3.472-1.352-6.737-3.808-9.192s-5.72-3.808-9.192-3.808zM16 0v0c8.837 0 16 7.163 16 16s-7.163 16-16 16c-8.837 0-16-7.163-16-16s7.163-16 16-16zM14 22h4v4h-4zM14 6h4v12h-4z"></path>
</symbol>
<symbol id="icon-question" viewBox="0 0 32 32">
<title>question</title>
<path class="path1" d="M14 22h4v4h-4zM22 8c1.105 0 2 0.895 2 2v6l-6 4h-4v-2l6-4v-2h-10v-4h12zM16 3c-3.472 0-6.737 1.352-9.192 3.808s-3.808 5.72-3.808 9.192c0 3.472 1.352 6.737 3.808 9.192s5.72 3.808 9.192 3.808c3.472 0 6.737-1.352 9.192-3.808s3.808-5.72 3.808-9.192c0-3.472-1.352-6.737-3.808-9.192s-5.72-3.808-9.192-3.808zM16 0v0c8.837 0 16 7.163 16 16s-7.163 16-16 16c-8.837 0-16-7.163-16-16s7.163-16 16-16z"></path>
</symbol>
<symbol id="icon-info" viewBox="0 0 32 32">
<title>info</title>
<path class="path1" d="M14 9.5c0-0.825 0.675-1.5 1.5-1.5h1c0.825 0 1.5 0.675 1.5 1.5v1c0 0.825-0.675 1.5-1.5 1.5h-1c-0.825 0-1.5-0.675-1.5-1.5v-1z"></path>
<path class="path2" d="M20 24h-8v-2h2v-6h-2v-2h6v8h2z"></path>
<path class="path3" d="M16 0c-8.837 0-16 7.163-16 16s7.163 16 16 16 16-7.163 16-16-7.163-16-16-16zM16 29c-7.18 0-13-5.82-13-13s5.82-13 13-13 13 5.82 13 13-5.82 13-13 13z"></path>
</symbol>
<symbol id="icon-cross" viewBox="0 0 32 32">
<title>cross</title>
<path class="path1" d="M31.708 25.708c-0-0-0-0-0-0l-9.708-9.708 9.708-9.708c0-0 0-0 0-0 0.105-0.105 0.18-0.227 0.229-0.357 0.133-0.356 0.057-0.771-0.229-1.057l-4.586-4.586c-0.286-0.286-0.702-0.361-1.057-0.229-0.13 0.048-0.252 0.124-0.357 0.228 0 0-0 0-0 0l-9.708 9.708-9.708-9.708c-0-0-0-0-0-0-0.105-0.104-0.227-0.18-0.357-0.228-0.356-0.133-0.771-0.057-1.057 0.229l-4.586 4.586c-0.286 0.286-0.361 0.702-0.229 1.057 0.049 0.13 0.124 0.252 0.229 0.357 0 0 0 0 0 0l9.708 9.708-9.708 9.708c-0 0-0 0-0 0-0.104 0.105-0.18 0.227-0.229 0.357-0.133 0.355-0.057 0.771 0.229 1.057l4.586 4.586c0.286 0.286 0.702 0.361 1.057 0.229 0.13-0.049 0.252-0.124 0.357-0.229 0-0 0-0 0-0l9.708-9.708 9.708 9.708c0 0 0 0 0 0 0.105 0.105 0.227 0.18 0.357 0.229 0.356 0.133 0.771 0.057 1.057-0.229l4.586-4.586c0.286-0.286 0.362-0.702 0.229-1.057-0.049-0.13-0.124-0.252-0.229-0.357z"></path>
</symbol>
<symbol id="icon-checkmark" viewBox="0 0 32 32">
<title>checkmark</title>
<path class="path1" d="M27 4l-15 15-7-7-5 5 12 12 20-20z"></path>
</symbol>
<symbol id="icon-logout" viewBox="0 0 32 32">
<title>logout</title>
<path class="path1" d="M12 16h-10v-4h10v-4l6 6-6 6zM32 0v26l-12 6v-6h-12v-8h2v6h10v-18l8-4h-18v8h-2v-10z"></path>
</symbol>
<symbol id="icon-play" viewBox="0 0 32 32">
<title>play</title>
<path class="path1" d="M6 4l20 12-20 12z"></path>
</symbol>
<symbol id="icon-pause" viewBox="0 0 32 32">
<title>pause</title>
<path class="path1" d="M4 4h10v24h-10zM18 4h10v24h-10z"></path>
</symbol>
<symbol id="icon-stop" viewBox="0 0 32 32">
<title>stop</title>
<path class="path1" d="M4 4h24v24h-24z"></path>
</symbol>
<symbol id="icon-volume-high" viewBox="0 0 34 32">
<title>volume-high</title>
<path class="path1" d="M27.814 28.814c-0.384 0-0.768-0.146-1.061-0.439-0.586-0.586-0.586-1.535 0-2.121 2.739-2.739 4.247-6.38 4.247-10.253s-1.508-7.514-4.247-10.253c-0.586-0.586-0.586-1.536 0-2.121s1.536-0.586 2.121 0c3.305 3.305 5.126 7.7 5.126 12.374s-1.82 9.069-5.126 12.374c-0.293 0.293-0.677 0.439-1.061 0.439zM22.485 25.985c-0.384 0-0.768-0.146-1.061-0.439-0.586-0.586-0.586-1.535 0-2.121 4.094-4.094 4.094-10.755 0-14.849-0.586-0.586-0.586-1.536 0-2.121s1.536-0.586 2.121 0c2.55 2.55 3.954 5.94 3.954 9.546s-1.404 6.996-3.954 9.546c-0.293 0.293-0.677 0.439-1.061 0.439v0zM17.157 23.157c-0.384 0-0.768-0.146-1.061-0.439-0.586-0.586-0.586-1.535 0-2.121 2.534-2.534 2.534-6.658 0-9.192-0.586-0.586-0.586-1.536 0-2.121s1.535-0.586 2.121 0c3.704 3.704 3.704 9.731 0 13.435-0.293 0.293-0.677 0.439-1.061 0.439z"></path>
<path class="path2" d="M13 30c-0.26 0-0.516-0.102-0.707-0.293l-7.707-7.707h-3.586c-0.552 0-1-0.448-1-1v-10c0-0.552 0.448-1 1-1h3.586l7.707-7.707c0.286-0.286 0.716-0.372 1.090-0.217s0.617 0.519 0.617 0.924v26c0 0.404-0.244 0.769-0.617 0.924-0.124 0.051-0.254 0.076-0.383 0.076z"></path>
</symbol>
<symbol id="icon-volume-mute" viewBox="0 0 32 32">
<title>volume-mute</title>
<path class="path1" d="M30 19.348v2.652h-2.652l-3.348-3.348-3.348 3.348h-2.652v-2.652l3.348-3.348-3.348-3.348v-2.652h2.652l3.348 3.348 3.348-3.348h2.652v2.652l-3.348 3.348 3.348 3.348z"></path>
<path class="path2" d="M13 30c-0.26 0-0.516-0.102-0.707-0.293l-7.707-7.707h-3.586c-0.552 0-1-0.448-1-1v-10c0-0.552 0.448-1 1-1h3.586l7.707-7.707c0.286-0.286 0.716-0.372 1.090-0.217s0.617 0.519 0.617 0.924v26c0 0.404-0.244 0.769-0.617 0.924-0.124 0.051-0.254 0.076-0.383 0.076z"></path>
</symbol>
<symbol id="icon-arrow-up" viewBox="0 0 32 32">
<title>arrow-up</title>
<path class="path1" d="M16 1l-15 15h9v16h12v-16h9z"></path>
</symbol>
<symbol id="icon-arrow-down" viewBox="0 0 32 32">
<title>arrow-down</title>
<path class="path1" d="M16 31l15-15h-9v-16h-12v16h-9z"></path>
</symbol>
<symbol id="icon-sort-amount-asc" viewBox="0 0 32 32">
<title>sort-amount-asc</title>
<path class="path1" d="M10 24v-24h-4v24h-5l7 7 7-7h-5z"></path>
<path class="path2" d="M14 18h18v4h-18v-4z"></path>
<path class="path3" d="M14 12h14v4h-14v-4z"></path>
<path class="path4" d="M14 6h10v4h-10v-4z"></path>
<path class="path5" d="M14 0h6v4h-6v-4z"></path>
</symbol>
<symbol id="icon-sort-amount-desc" viewBox="0 0 32 32">
<title>sort-amount-desc</title>
<path class="path1" d="M10 24v-24h-4v24h-5l7 7 7-7h-5z"></path>
<path class="path2" d="M14 0h18v4h-18v-4z"></path>
<path class="path3" d="M14 6h14v4h-14v-4z"></path>
<path class="path4" d="M14 12h10v4h-10v-4z"></path>
<path class="path5" d="M14 18h6v4h-6v-4z"></path>
</symbol>
<symbol id="icon-checkbox-checked" viewBox="0 0 32 32">
<title>checkbox-checked</title>
<path class="path1" d="M28 0h-24c-2.2 0-4 1.8-4 4v24c0 2.2 1.8 4 4 4h24c2.2 0 4-1.8 4-4v-24c0-2.2-1.8-4-4-4zM14 24.828l-7.414-7.414 2.828-2.828 4.586 4.586 9.586-9.586 2.828 2.828-12.414 12.414z"></path>
</symbol>
<symbol id="icon-checkbox-unchecked" viewBox="0 0 32 32">
<title>checkbox-unchecked</title>
<path class="path1" d="M28 0h-24c-2.2 0-4 1.8-4 4v24c0 2.2 1.8 4 4 4h24c2.2 0 4-1.8 4-4v-24c0-2.2-1.8-4-4-4zM28 28h-24v-24h24v24z"></path>
</symbol>
<symbol id="icon-bold" viewBox="0 0 32 32">
<title>bold</title>
<path class="path1" d="M22.121 15.145c1.172-1.392 1.879-3.188 1.879-5.145 0-4.411-3.589-8-8-8h-10v28h12c4.411 0 8-3.589 8-8 0-2.905-1.556-5.453-3.879-6.855zM12 6h3.172c1.749 0 3.172 1.794 3.172 4s-1.423 4-3.172 4h-3.172v-8zM16.969 26h-4.969v-8h4.969c1.827 0 3.313 1.794 3.313 4s-1.486 4-3.313 4z"></path>
</symbol>
<symbol id="icon-underline" viewBox="0 0 32 32">
<title>underline</title>
<path class="path1" d="M22 2h4v13c0 4.971-4.477 9-10 9s-10-4.029-10-9v-13h4v13c0 1.255 0.57 2.459 1.605 3.391 1.153 1.038 2.714 1.609 4.395 1.609s3.242-0.572 4.395-1.609c1.035-0.931 1.605-2.136 1.605-3.391v-13zM6 26h20v4h-20z"></path>
</symbol>
<symbol id="icon-italic" viewBox="0 0 32 32">
<title>italic</title>
<path class="path1" d="M28 2v2h-4l-10 24h4v2h-14v-2h4l10-24h-4v-2z"></path>
</symbol>
<symbol id="icon-strikethrough" viewBox="0 0 32 32">
<title>strikethrough</title>
<path class="path1" d="M32 16v2h-7.328c0.86 1.203 1.328 2.584 1.328 4 0 2.215-1.146 4.345-3.143 5.843-1.855 1.391-4.29 2.157-6.857 2.157s-5.002-0.766-6.857-2.157c-1.998-1.498-3.143-3.628-3.143-5.843h4c0 2.168 2.748 4 6 4s6-1.832 6-4c0-2.168-2.748-4-6-4h-16v-2h9.36c-0.073-0.052-0.146-0.104-0.217-0.157-1.998-1.498-3.143-3.628-3.143-5.843s1.146-4.345 3.143-5.843c1.855-1.391 4.29-2.157 6.857-2.157s5.002 0.766 6.857 2.157c1.997 1.498 3.143 3.628 3.143 5.843h-4c0-2.168-2.748-4-6-4s-6 1.832-6 4c0 2.168 2.748 4 6 4 2.468 0 4.814 0.709 6.64 2h9.36z"></path>
</symbol>
<symbol id="icon-paragraph-left" viewBox="0 0 32 32">
<title>paragraph-left</title>
<path class="path1" d="M0 2h32v4h-32zM0 8h20v4h-20zM0 20h20v4h-20zM0 14h32v4h-32zM0 26h32v4h-32z"></path>
</symbol>
<symbol id="icon-paragraph-center" viewBox="0 0 32 32">
<title>paragraph-center</title>
<path class="path1" d="M0 2h32v4h-32zM6 8h20v4h-20zM6 20h20v4h-20zM0 14h32v4h-32zM0 26h32v4h-32z"></path>
</symbol>
<symbol id="icon-paragraph-right" viewBox="0 0 32 32">
<title>paragraph-right</title>
<path class="path1" d="M0 2h32v4h-32zM12 8h20v4h-20zM12 20h20v4h-20zM0 14h32v4h-32zM0 26h32v4h-32z"></path>
</symbol>
<symbol id="icon-embed" viewBox="0 0 40 32">
<title>embed</title>
<path class="path1" d="M26 23l3 3 10-10-10-10-3 3 7 7z"></path>
<path class="path2" d="M14 9l-3-3-10 10 10 10 3-3-7-7z"></path>
<path class="path3" d="M21.916 4.704l2.171 0.592-6 22.001-2.171-0.592 6-22.001z"></path>
</symbol>
<symbol id="icon-google-drive" viewBox="0 0 32 32">
<title>google-drive</title>
<path class="path1" d="M13.688 20l-5.769 10h18.144l5.769-10z"></path>
<path class="path2" d="M31.012 18l-9.238-16h-11.55l9.238 16z"></path>
<path class="path3" d="M9.069 4l-9.069 15.712 5.775 10 9.069-15.713z"></path>
</symbol>
<symbol id="icon-facebook" viewBox="0 0 32 32">
<title>facebook</title>
<path class="path1" d="M29 0h-26c-1.65 0-3 1.35-3 3v26c0 1.65 1.35 3 3 3h13v-14h-4v-4h4v-2c0-3.306 2.694-6 6-6h4v4h-4c-1.1 0-2 0.9-2 2v2h6l-1 4h-5v14h9c1.65 0 3-1.35 3-3v-26c0-1.65-1.35-3-3-3z"></path>
</symbol>
<symbol id="icon-instagram" viewBox="0 0 32 32">
<title>instagram</title>
<path class="path1" d="M16 2.881c4.275 0 4.781 0.019 6.462 0.094 1.563 0.069 2.406 0.331 2.969 0.55 0.744 0.288 1.281 0.638 1.837 1.194 0.563 0.563 0.906 1.094 1.2 1.838 0.219 0.563 0.481 1.412 0.55 2.969 0.075 1.688 0.094 2.194 0.094 6.463s-0.019 4.781-0.094 6.463c-0.069 1.563-0.331 2.406-0.55 2.969-0.288 0.744-0.637 1.281-1.194 1.837-0.563 0.563-1.094 0.906-1.837 1.2-0.563 0.219-1.413 0.481-2.969 0.55-1.688 0.075-2.194 0.094-6.463 0.094s-4.781-0.019-6.463-0.094c-1.563-0.069-2.406-0.331-2.969-0.55-0.744-0.288-1.281-0.637-1.838-1.194-0.563-0.563-0.906-1.094-1.2-1.837-0.219-0.563-0.481-1.413-0.55-2.969-0.075-1.688-0.094-2.194-0.094-6.463s0.019-4.781 0.094-6.463c0.069-1.563 0.331-2.406 0.55-2.969 0.288-0.744 0.638-1.281 1.194-1.838 0.563-0.563 1.094-0.906 1.838-1.2 0.563-0.219 1.412-0.481 2.969-0.55 1.681-0.075 2.188-0.094 6.463-0.094zM16 0c-4.344 0-4.887 0.019-6.594 0.094-1.7 0.075-2.869 0.35-3.881 0.744-1.056 0.412-1.95 0.956-2.837 1.85-0.894 0.888-1.438 1.781-1.85 2.831-0.394 1.019-0.669 2.181-0.744 3.881-0.075 1.713-0.094 2.256-0.094 6.6s0.019 4.887 0.094 6.594c0.075 1.7 0.35 2.869 0.744 3.881 0.413 1.056 0.956 1.95 1.85 2.837 0.887 0.887 1.781 1.438 2.831 1.844 1.019 0.394 2.181 0.669 3.881 0.744 1.706 0.075 2.25 0.094 6.594 0.094s4.888-0.019 6.594-0.094c1.7-0.075 2.869-0.35 3.881-0.744 1.050-0.406 1.944-0.956 2.831-1.844s1.438-1.781 1.844-2.831c0.394-1.019 0.669-2.181 0.744-3.881 0.075-1.706 0.094-2.25 0.094-6.594s-0.019-4.887-0.094-6.594c-0.075-1.7-0.35-2.869-0.744-3.881-0.394-1.063-0.938-1.956-1.831-2.844-0.887-0.887-1.781-1.438-2.831-1.844-1.019-0.394-2.181-0.669-3.881-0.744-1.712-0.081-2.256-0.1-6.6-0.1v0z"></path>
<path class="path2" d="M16 7.781c-4.537 0-8.219 3.681-8.219 8.219s3.681 8.219 8.219 8.219 8.219-3.681 8.219-8.219c0-4.537-3.681-8.219-8.219-8.219zM16 21.331c-2.944 0-5.331-2.387-5.331-5.331s2.387-5.331 5.331-5.331c2.944 0 5.331 2.387 5.331 5.331s-2.387 5.331-5.331 5.331z"></path>
<path class="path3" d="M26.462 7.456c0 1.060-0.859 1.919-1.919 1.919s-1.919-0.859-1.919-1.919c0-1.060 0.859-1.919 1.919-1.919s1.919 0.859 1.919 1.919z"></path>
</symbol>
<symbol id="icon-twitter" viewBox="0 0 32 32">
<title>twitter</title>
<path class="path1" d="M32 7.075c-1.175 0.525-2.444 0.875-3.769 1.031 1.356-0.813 2.394-2.1 2.887-3.631-1.269 0.75-2.675 1.3-4.169 1.594-1.2-1.275-2.906-2.069-4.794-2.069-3.625 0-6.563 2.938-6.563 6.563 0 0.512 0.056 1.012 0.169 1.494-5.456-0.275-10.294-2.888-13.531-6.862-0.563 0.969-0.887 2.1-0.887 3.3 0 2.275 1.156 4.287 2.919 5.463-1.075-0.031-2.087-0.331-2.975-0.819 0 0.025 0 0.056 0 0.081 0 3.181 2.263 5.838 5.269 6.437-0.55 0.15-1.131 0.231-1.731 0.231-0.425 0-0.831-0.044-1.237-0.119 0.838 2.606 3.263 4.506 6.131 4.563-2.25 1.762-5.075 2.813-8.156 2.813-0.531 0-1.050-0.031-1.569-0.094 2.913 1.869 6.362 2.95 10.069 2.95 12.075 0 18.681-10.006 18.681-18.681 0-0.287-0.006-0.569-0.019-0.85 1.281-0.919 2.394-2.075 3.275-3.394z"></path>
</symbol>
<symbol id="icon-vine" viewBox="0 0 32 32">
<title>vine</title>
<path class="path1" d="M30.025 15.906c-0.825 0.188-1.619 0.275-2.337 0.275-4.038 0-7.144-2.819-7.144-7.725 0-2.406 0.931-3.65 2.244-3.65 1.25 0 2.081 1.119 2.081 3.394 0 1.294-0.344 2.713-0.6 3.55 0 0 1.244 2.169 4.644 1.506 0.725-1.606 1.113-3.681 1.113-5.5 0-4.9-2.5-7.756-7.081-7.756-4.713 0-7.469 3.619-7.469 8.394 0 4.731 2.212 8.787 5.856 10.637-1.531 3.069-3.481 5.769-5.519 7.806-3.688-4.462-7.025-10.413-8.394-22.031h-5.444c2.519 19.35 10.012 25.512 12 26.694 1.119 0.675 2.088 0.644 3.112 0.063 1.613-0.913 6.444-5.75 9.125-11.406 1.125 0 2.475-0.131 3.819-0.438v-3.813z"></path>
</symbol>
<symbol id="icon-rss" viewBox="0 0 32 32">
<title>rss</title>
<path class="path1" d="M29 0h-26c-1.65 0-3 1.35-3 3v26c0 1.65 1.35 3 3 3h26c1.65 0 3-1.35 3-3v-26c0-1.65-1.35-3-3-3zM8.719 25.975c-1.5 0-2.719-1.206-2.719-2.706 0-1.488 1.219-2.712 2.719-2.712 1.506 0 2.719 1.225 2.719 2.712 0 1.5-1.219 2.706-2.719 2.706zM15.544 26c0-2.556-0.994-4.962-2.794-6.762-1.806-1.806-4.2-2.8-6.75-2.8v-3.912c7.425 0 13.475 6.044 13.475 13.475h-3.931zM22.488 26c0-9.094-7.394-16.5-16.481-16.5v-3.912c11.25 0 20.406 9.162 20.406 20.413h-3.925z"></path>
</symbol>
<symbol id="icon-youtube" viewBox="0 0 32 32">
<title>youtube</title>
<path class="path1" d="M31.681 9.6c0 0-0.313-2.206-1.275-3.175-1.219-1.275-2.581-1.281-3.206-1.356-4.475-0.325-11.194-0.325-11.194-0.325h-0.012c0 0-6.719 0-11.194 0.325-0.625 0.075-1.987 0.081-3.206 1.356-0.963 0.969-1.269 3.175-1.269 3.175s-0.319 2.588-0.319 5.181v2.425c0 2.587 0.319 5.181 0.319 5.181s0.313 2.206 1.269 3.175c1.219 1.275 2.819 1.231 3.531 1.369 2.563 0.244 10.881 0.319 10.881 0.319s6.725-0.012 11.2-0.331c0.625-0.075 1.988-0.081 3.206-1.356 0.962-0.969 1.275-3.175 1.275-3.175s0.319-2.587 0.319-5.181v-2.425c-0.006-2.588-0.325-5.181-0.325-5.181zM12.694 20.15v-8.994l8.644 4.513-8.644 4.481z"></path>
</symbol>
<symbol id="icon-twitch" viewBox="0 0 32 32">
<title>twitch</title>
<path class="path1" d="M3 0l-3 5v23h8v4h4l4-4h5l9-9v-19h-27zM26 17l-5 5h-5l-4 4v-4h-6v-18h20v13z"></path>
<path class="path2" d="M19 8h3v8h-3v-8z"></path>
<path class="path3" d="M13 8h3v8h-3v-8z"></path>
</symbol>
<symbol id="icon-steam" viewBox="0 0 32 32">
<title>steam</title>
<path class="path1" d="M9.498 26.125c0.848 0 1.681-0.41 2.187-1.169 0.804-1.206 0.478-2.836-0.728-3.64l-2.065-1.377c0.353-0.096 0.725-0.149 1.109-0.149 2.325 0 4.209 1.884 4.209 4.209s-1.885 4.209-4.209 4.209c-2.263 0-4.108-1.785-4.205-4.024l2.249 1.499c0.448 0.298 0.953 0.441 1.454 0.441zM26.667 0c2.934 0 5.333 2.4 5.333 5.334v21.332c0 2.936-2.399 5.334-5.333 5.334h-21.333c-2.934 0-5.334-2.398-5.334-5.334v-6.345l3.792 2.528c-0.364 1.974 0.217 4.088 1.744 5.615 2.466 2.466 6.463 2.466 8.929 0 1.515-1.515 2.098-3.607 1.752-5.568l7.783-6.968c1.445-0.207 2.838-0.867 3.95-1.979 2.734-2.734 2.734-7.166 0-9.899s-7.166-2.734-9.9 0c-1.112 1.112-1.771 2.505-1.979 3.95v0l-6.397 9.695c-0.995 0.051-1.981 0.336-2.866 0.856l-6.808-4.539v-8.678c0-2.934 2.4-5.334 5.334-5.334h21.333zM28 9c0-2.761-2.239-5-5-5s-5 2.239-5 5 2.239 5 5 5 5-2.239 5-5zM20 9c0-1.657 1.343-3 3-3s3 1.343 3 3-1.343 3-3 3-3-1.343-3-3z"></path>
</symbol>
<symbol id="icon-dropbox" viewBox="0 0 32 32">
<title>dropbox</title>
<path class="path1" d="M23 1l-7 6 9 6 7-6z"></path>
<path class="path2" d="M16 7l-7-6-9 6 7 6z"></path>
<path class="path3" d="M25 13l7 6-9 5-7-6z"></path>
<path class="path4" d="M16 18l-9-5-7 6 9 5z"></path>
<path class="path5" d="M22.755 26.424l-6.755-5.79-6.755 5.79-4.245-2.358v2.934l11 5 11-5v-2.934z"></path>
</symbol>
<symbol id="icon-github" viewBox="0 0 32 32">
<title>github</title>
<path class="path1" d="M16 0.395c-8.836 0-16 7.163-16 16 0 7.069 4.585 13.067 10.942 15.182 0.8 0.148 1.094-0.347 1.094-0.77 0-0.381-0.015-1.642-0.022-2.979-4.452 0.968-5.391-1.888-5.391-1.888-0.728-1.849-1.776-2.341-1.776-2.341-1.452-0.993 0.11-0.973 0.11-0.973 1.606 0.113 2.452 1.649 2.452 1.649 1.427 2.446 3.743 1.739 4.656 1.33 0.143-1.034 0.558-1.74 1.016-2.14-3.554-0.404-7.29-1.777-7.29-7.907 0-1.747 0.625-3.174 1.649-4.295-0.166-0.403-0.714-2.030 0.155-4.234 0 0 1.344-0.43 4.401 1.64 1.276-0.355 2.645-0.532 4.005-0.539 1.359 0.006 2.729 0.184 4.008 0.539 3.054-2.070 4.395-1.64 4.395-1.64 0.871 2.204 0.323 3.831 0.157 4.234 1.026 1.12 1.647 2.548 1.647 4.295 0 6.145-3.743 7.498-7.306 7.895 0.574 0.497 1.085 1.47 1.085 2.963 0 2.141-0.019 3.864-0.019 4.391 0 0.426 0.288 0.925 1.099 0.768 6.354-2.118 10.933-8.113 10.933-15.18 0-8.837-7.164-16-16-16z"></path>
</symbol>
<symbol id="icon-tumblr" viewBox="0 0 32 32">
<title>tumblr</title>
<path class="path1" d="M29 0h-26c-1.65 0-3 1.35-3 3v26c0 1.65 1.35 3 3 3h26c1.65 0 3-1.35 3-3v-26c0-1.65-1.35-3-3-3zM22.869 25.769c-0.944 0.444-1.8 0.756-2.563 0.938-0.762 0.175-1.594 0.269-2.481 0.269-1.012 0-1.606-0.125-2.381-0.381s-1.438-0.619-1.988-1.087c-0.55-0.475-0.925-0.975-1.137-1.506s-0.319-1.3-0.319-2.313v-7.744h-3v-3.125c0.869-0.281 1.875-0.688 2.488-1.213 0.619-0.525 1.119-1.156 1.488-1.894 0.375-0.737 0.631-1.675 0.775-2.813h3.138v5.1h5.113v3.944h-5.106v5.662c0 1.281-0.019 2.019 0.119 2.381s0.475 0.738 0.844 0.95c0.488 0.294 1.050 0.438 1.675 0.438 1.119 0 2.231-0.363 3.337-1.087v3.481z"></path>
</symbol>
<symbol id="icon-linux" viewBox="0 0 32 32">
<title>linux</title>
<path class="path1" d="M17.739 23.029c-2.561 1.191-4.942 1.179-6.542 1.063-1.908-0.138-3.442-0.66-4.117-1.117-0.416-0.281-0.981-0.173-1.262 0.243s-0.173 0.981 0.243 1.262c1.084 0.734 3.002 1.28 5.005 1.424 0.34 0.024 0.712 0.040 1.114 0.040 1.743 0 3.957-0.166 6.326-1.268 0.455-0.212 0.652-0.752 0.441-1.207s-0.752-0.652-1.208-0.441zM27.842 21.682c0.087-7.896 0.899-22.819-14.218-21.613-14.925 1.201-10.968 16.968-11.19 22.248-0.197 2.793-1.124 6.208-2.434 9.683h4.034c0.415-1.473 0.72-2.929 0.851-4.317 0.243 0.17 0.503 0.334 0.781 0.491 0.452 0.266 0.84 0.62 1.251 0.995 0.961 0.876 2.050 1.868 4.179 1.992 0.143 0.008 0.287 0.012 0.427 0.012 2.153 0 3.625-0.942 4.809-1.699 0.567-0.363 1.057-0.676 1.518-0.827 1.31-0.41 2.454-1.072 3.309-1.914 0.134-0.131 0.258-0.267 0.374-0.405 0.476 1.746 1.129 3.711 1.853 5.672h8.614c-2.068-3.195-4.201-6.324-4.158-10.318zM3.878 17.386c0-0 0-0.001-0-0.001-0.148-2.577 1.085-4.745 2.754-4.842s3.142 1.913 3.291 4.49c0 0 0 0.001 0 0.001 0.008 0.139 0.011 0.276 0.012 0.413-0.529 0.133-1.006 0.326-1.434 0.551-0.002-0.019-0.003-0.038-0.005-0.057 0-0 0-0.001 0-0.001-0.143-1.463-0.924-2.567-1.745-2.467s-1.371 1.367-1.228 2.83c0 0 0 0.001 0 0.001 0.062 0.638 0.246 1.207 0.501 1.639-0.064 0.050-0.243 0.182-0.45 0.333-0.155 0.114-0.344 0.252-0.572 0.42-0.621-0.815-1.047-1.987-1.123-3.309zM20.789 23.756c-0.059 1.362-1.841 2.643-3.487 3.158l-0.009 0.003c-0.684 0.222-1.295 0.613-1.941 1.026-1.085 0.695-2.208 1.413-3.829 1.413-0.106 0-0.215-0.003-0.323-0.009-1.485-0.087-2.179-0.72-3.059-1.521-0.464-0.423-0.943-0.86-1.562-1.223l-0.013-0.008c-1.335-0.753-2.163-1.69-2.216-2.506-0.026-0.406 0.154-0.757 0.537-1.044 0.832-0.624 1.39-1.032 1.759-1.302 0.41-0.3 0.533-0.39 0.625-0.477 0.066-0.062 0.136-0.131 0.213-0.205 0.764-0.743 2.043-1.986 4.005-1.986 1.2 0 2.528 0.462 3.943 1.372 0.666 0.434 1.246 0.634 1.981 0.887 0.505 0.174 1.077 0.372 1.843 0.7l0.012 0.005c0.715 0.294 1.559 0.83 1.521 1.717zM20.395 20.556c-0.137-0.069-0.28-0.135-0.43-0.196-0.691-0.296-1.245-0.496-1.704-0.656 0.254-0.497 0.411-1.116 0.426-1.789 0-0 0-0.001 0-0.001 0.035-1.637-0.79-2.966-1.844-2.968s-1.936 1.322-1.971 2.959c0 0 0 0.001 0 0.001-0.001 0.054-0.001 0.107-0.001 0.16-0.649-0.299-1.287-0.515-1.911-0.649-0.003-0.061-0.006-0.123-0.008-0.185 0-0 0-0.001 0-0.002-0.061-2.982 1.769-5.45 4.086-5.513s4.245 2.303 4.305 5.285c0 0.001 0 0.001 0 0.002 0.027 1.348-0.333 2.59-0.949 3.552z"></path>
</symbol>
<symbol id="icon-apple" viewBox="0 0 32 32">
<title>apple</title>
<path class="path1" d="M24.734 17.003c-0.040-4.053 3.305-5.996 3.454-6.093-1.88-2.751-4.808-3.127-5.851-3.171-2.492-0.252-4.862 1.467-6.127 1.467-1.261 0-3.213-1.43-5.28-1.392-2.716 0.040-5.221 1.579-6.619 4.012-2.822 4.897-0.723 12.151 2.028 16.123 1.344 1.944 2.947 4.127 5.051 4.049 2.026-0.081 2.793-1.311 5.242-1.311s3.138 1.311 5.283 1.271c2.18-0.041 3.562-1.981 4.897-3.931 1.543-2.255 2.179-4.439 2.216-4.551-0.048-0.022-4.252-1.632-4.294-6.473zM20.705 5.11c1.117-1.355 1.871-3.235 1.665-5.11-1.609 0.066-3.559 1.072-4.713 2.423-1.036 1.199-1.942 3.113-1.699 4.951 1.796 0.14 3.629-0.913 4.747-2.264z"></path>
</symbol>
<symbol id="icon-android" viewBox="0 0 32 32">
<title>android</title>
<path class="path1" d="M28 12c-1.1 0-2 0.9-2 2v8c0 1.1 0.9 2 2 2s2-0.9 2-2v-8c0-1.1-0.9-2-2-2zM4 12c-1.1 0-2 0.9-2 2v8c0 1.1 0.9 2 2 2s2-0.9 2-2v-8c0-1.1-0.9-2-2-2zM7 23c0 1.657 1.343 3 3 3v0 4c0 1.1 0.9 2 2 2s2-0.9 2-2v-4h4v4c0 1.1 0.9 2 2 2s2-0.9 2-2v-4c1.657 0 3-1.343 3-3v-11h-18v11z"></path>
<path class="path2" d="M24.944 10c-0.304-2.746-1.844-5.119-4.051-6.551l1.001-2.001c0.247-0.494 0.047-1.095-0.447-1.342s-1.095-0.047-1.342 0.447l-1.004 2.009-0.261-0.104c-0.893-0.297-1.848-0.458-2.84-0.458s-1.947 0.161-2.84 0.458l-0.261 0.104-1.004-2.009c-0.247-0.494-0.848-0.694-1.342-0.447s-0.694 0.848-0.447 1.342l1.001 2.001c-2.207 1.433-3.747 3.805-4.051 6.551v1h17.944v-1h-0.056zM13 8c-0.552 0-1-0.448-1-1s0.447-0.999 0.998-1c0.001 0 0.002 0 0.003 0s0.001-0 0.002-0c0.551 0.001 0.998 0.448 0.998 1s-0.448 1-1 1zM19 8c-0.552 0-1-0.448-1-1s0.446-0.999 0.998-1c0 0 0.001 0 0.002 0s0.002-0 0.003-0c0.551 0.001 0.998 0.448 0.998 1s-0.448 1-1 1z"></path>
</symbol>
<symbol id="icon-windows" viewBox="0 0 32 32">
<title>windows</title>
<path class="path1" d="M12.882 15.997c-1.491-0.766-2.94-1.155-4.309-1.155-0.186 0-0.373 0.006-0.561 0.022-1.746 0.145-3.341 0.605-4.367 0.963-0.272 0.1-0.551 0.205-0.838 0.322l-2.807 9.731c1.928-0.713 3.634-1.061 5.196-1.061 2.526 0 4.36 0.944 5.875 1.916 0.718-2.435 2.439-8.315 2.953-10.073-0.373-0.228-0.752-0.455-1.141-0.666zM16.511 18.471l-2.826 9.817c0.838 0.48 3.659 2.002 5.819 2.002 1.744 0 3.695-0.447 5.964-1.369l2.699-9.437c-1.832 0.591-3.59 0.891-5.233 0.891-2.998 0-5.097-0.972-6.422-1.905zM9.151 11.525c2.41 0.025 4.192 0.944 5.669 1.891l2.899-9.917c-0.611-0.35-2.213-1.222-3.371-1.519-0.762-0.178-1.563-0.269-2.413-0.269-1.619 0.030-3.387 0.436-5.403 1.244l-2.764 9.706c2.025-0.764 3.77-1.136 5.378-1.136 0.001 0 0.004 0 0.004 0zM32 6.191c-1.838 0.713-3.631 1.077-5.345 1.077-2.865 0-4.978-0.994-6.347-1.949l-2.873 9.945c1.93 1.241 4.009 1.871 6.191 1.871 1.78 0 3.623-0.427 5.483-1.271l-0.006-0.069 0.117-0.028 2.779-9.576z"></path>
</symbol>
<symbol id="icon-soundcloud" viewBox="0 0 32 32">
<title>soundcloud</title>
<path class="path1" d="M27.874 16.069c-0.565 0-1.105 0.11-1.596 0.308-0.328-3.574-3.447-6.377-7.25-6.377-0.931 0-1.834 0.176-2.635 0.474-0.311 0.116-0.393 0.235-0.393 0.466v12.585c0 0.243 0.195 0.445 0.441 0.469 0.011 0.001 11.36 0.007 11.434 0.007 2.278 0 4.125-1.776 4.125-3.965s-1.848-3.966-4.126-3.966zM12.5 24h1l0.5-7.007-0.5-6.993h-1l-0.5 6.993zM9.5 24h-1l-0.5-5.086 0.5-4.914h1l0.5 5zM4.5 24h1l0.5-4-0.5-4h-1l-0.5 4zM0.5 22h1l0.5-2-0.5-2h-1l-0.5 2z"></path>
</symbol>
<symbol id="icon-reddit" viewBox="0 0 32 32">
<title>reddit</title>
<path class="path1" d="M8 20c0-1.105 0.895-2 2-2s2 0.895 2 2c0 1.105-0.895 2-2 2s-2-0.895-2-2zM20 20c0-1.105 0.895-2 2-2s2 0.895 2 2c0 1.105-0.895 2-2 2s-2-0.895-2-2zM20.097 24.274c0.515-0.406 1.262-0.317 1.668 0.198s0.317 1.262-0.198 1.668c-1.434 1.13-3.619 1.86-5.567 1.86s-4.133-0.73-5.567-1.86c-0.515-0.406-0.604-1.153-0.198-1.668s1.153-0.604 1.668-0.198c0.826 0.651 2.46 1.351 4.097 1.351s3.271-0.7 4.097-1.351zM32 16c0-2.209-1.791-4-4-4-1.504 0-2.812 0.83-3.495 2.057-2.056-1.125-4.561-1.851-7.29-2.019l2.387-5.36 4.569 1.319c0.411 1.167 1.522 2.004 2.83 2.004 1.657 0 3-1.343 3-3s-1.343-3-3-3c-1.142 0-2.136 0.639-2.642 1.579l-5.091-1.47c-0.57-0.164-1.173 0.116-1.414 0.658l-3.243 7.282c-2.661 0.187-5.102 0.907-7.114 2.007-0.683-1.227-1.993-2.056-3.496-2.056-2.209 0-4 1.791-4 4 0 1.635 0.981 3.039 2.387 3.659-0.252 0.751-0.387 1.535-0.387 2.341 0 5.523 6.268 10 14 10s14-4.477 14-10c0-0.806-0.134-1.589-0.387-2.34 1.405-0.62 2.387-2.025 2.387-3.66zM27 5.875c0.621 0 1.125 0.504 1.125 1.125s-0.504 1.125-1.125 1.125-1.125-0.504-1.125-1.125 0.504-1.125 1.125-1.125zM2 16c0-1.103 0.897-2 2-2 0.797 0 1.487 0.469 1.808 1.145-1.045 0.793-1.911 1.707-2.552 2.711-0.735-0.296-1.256-1.016-1.256-1.856zM16 29.625c-6.42 0-11.625-3.414-11.625-7.625s5.205-7.625 11.625-7.625c6.42 0 11.625 3.414 11.625 7.625s-5.205 7.625-11.625 7.625zM28.744 17.856c-0.641-1.003-1.507-1.918-2.552-2.711 0.321-0.676 1.011-1.145 1.808-1.145 1.103 0 2 0.897 2 2 0 0.84-0.52 1.56-1.256 1.856z"></path>
</symbol>
<symbol id="icon-pdf" viewBox="0 0 32 32">
<title>pdf</title>
<path class="path1" d="M26.313 18.421c-0.427-0.42-1.372-0.643-2.812-0.662-0.974-0.011-2.147 0.075-3.38 0.248-0.552-0.319-1.122-0.665-1.568-1.083-1.202-1.122-2.205-2.68-2.831-4.394 0.041-0.16 0.075-0.301 0.108-0.444 0 0 0.677-3.846 0.498-5.146-0.025-0.178-0.040-0.23-0.088-0.369l-0.059-0.151c-0.184-0.425-0.545-0.875-1.111-0.85l-0.341-0.011c-0.631 0-1.146 0.323-1.281 0.805-0.411 1.514 0.013 3.778 0.781 6.711l-0.197 0.478c-0.55 1.34-1.238 2.689-1.846 3.88l-0.079 0.155c-0.639 1.251-1.22 2.313-1.745 3.213l-0.543 0.287c-0.040 0.021-0.97 0.513-1.188 0.645-1.852 1.106-3.079 2.361-3.282 3.357-0.065 0.318-0.017 0.725 0.313 0.913l0.525 0.264c0.228 0.114 0.468 0.172 0.714 0.172 1.319 0 2.85-1.643 4.959-5.324 2.435-0.793 5.208-1.452 7.638-1.815 1.852 1.043 4.129 1.767 5.567 1.767 0.255 0 0.475-0.024 0.654-0.072 0.276-0.073 0.508-0.23 0.65-0.444 0.279-0.42 0.335-0.998 0.26-1.59-0.023-0.176-0.163-0.393-0.315-0.541zM6.614 25.439c0.241-0.658 1.192-1.958 2.6-3.111 0.088-0.072 0.306-0.276 0.506-0.466-1.472 2.348-2.458 3.283-3.106 3.577zM14.951 6.24c0.424 0 0.665 1.069 0.685 2.070s-0.214 1.705-0.505 2.225c-0.241-0.77-0.357-1.984-0.357-2.778 0 0-0.018-1.517 0.177-1.517v0zM12.464 19.922c0.295-0.529 0.603-1.086 0.917-1.677 0.765-1.447 1.249-2.58 1.609-3.511 0.716 1.303 1.608 2.41 2.656 3.297 0.131 0.111 0.269 0.222 0.415 0.333-2.132 0.422-3.974 0.935-5.596 1.558v0zM25.903 19.802c-0.13 0.081-0.502 0.128-0.741 0.128-0.772 0-1.727-0.353-3.066-0.927 0.515-0.038 0.986-0.057 1.409-0.057 0.774 0 1.004-0.003 1.761 0.19s0.767 0.585 0.637 0.667v0z"></path>
<path class="path2" d="M28.681 7.159c-0.694-0.947-1.662-2.053-2.724-3.116s-2.169-2.030-3.116-2.724c-1.612-1.182-2.393-1.319-2.841-1.319h-15.5c-1.378 0-2.5 1.121-2.5 2.5v27c0 1.378 1.121 2.5 2.5 2.5h23c1.378 0 2.5-1.122 2.5-2.5v-19.5c0-0.448-0.137-1.23-1.319-2.841v0zM24.543 5.457c0.959 0.959 1.712 1.825 2.268 2.543h-4.811v-4.811c0.718 0.556 1.584 1.309 2.543 2.268v0zM28 29.5c0 0.271-0.229 0.5-0.5 0.5h-23c-0.271 0-0.5-0.229-0.5-0.5v-27c0-0.271 0.229-0.5 0.5-0.5 0 0 15.499-0 15.5 0v7c0 0.552 0.448 1 1 1h7v19.5z"></path>
</symbol>
<symbol id="icon-html5" viewBox="0 0 32 32">
<title>html5</title>
<path class="path1" d="M1.892 0l2.567 28.801 11.524 3.199 11.554-3.204 2.572-28.796h-28.216zM24.52 9.42h-13.517l0.322 3.617h12.874l-0.97 10.844-7.245 2.008-7.237-2.008-0.495-5.547h3.547l0.252 2.82 3.933 1.060 0.009-0.002 3.935-1.062 0.408-4.58h-12.242l-0.953-10.681h17.694l-0.316 3.532z"></path>
</symbol>


<symbol id="icon-wedge-right" viewBox="0 0 32 32">
<title>wedge-right</title>
<path class="path1" d="M-1 32L32 -1 32 32z" />
</symbol>

<symbol id="icon-wedge-left" viewBox="0 0 32 32">
<title>wedge-left</title>
<path class="path1" d="M-1 -1L32 32 -1 32z" />
</symbol>

<symbol id="icon-circle" viewBox="0 0 32 32">
<title>circle</title>
<circle cx="16" cy="16" r="16" fill="currentColor" />
</symbol>

</defs>
</svg>
