<svg xmlns="http://www.w3.org/2000/svg" viewBox="0 0 32 32">
<title xmlns="http://www.w3.org/2000/svg">paypal</title>
<path xmlns="http://www.w3.org/2000/svg" class="path1" d="M29.063 9.644c-1.494 6.631-6.106 10.131-13.375 10.131h-2.419l-1.681 10.675h-2.025l-0.106 0.688c-0.069 0.456 0.281 0.863 0.738 0.863h5.175c0.613 0 1.131-0.444 1.231-1.050l0.050-0.262 0.975-6.181 0.063-0.337c0.094-0.606 0.619-1.050 1.231-1.050h0.769c5.012 0 8.938-2.038 10.088-7.925 0.431-2.238 0.269-4.137-0.712-5.55z"/>
<path xmlns="http://www.w3.org/2000/svg" class="path2" d="M25.969 2.413c-1.481-1.688-4.163-2.413-7.587-2.413h-9.944c-0.7 0-1.3 0.506-1.406 1.2l-4.144 26.262c-0.081 0.519 0.319 0.988 0.844 0.988h6.144l1.544-9.781-0.050 0.306c0.106-0.694 0.7-1.2 1.4-1.2h2.919c5.731 0 10.219-2.325 11.531-9.063 0.038-0.2 0.075-0.394 0.1-0.581 0.387-2.487 0-4.188-1.35-5.719z"/>
</svg>