<?xml version="1.0" encoding="UTF-8" standalone="no"?>
<svg
   xmlns:dc="http://purl.org/dc/elements/1.1/"
   xmlns:cc="http://creativecommons.org/ns#"
   xmlns:rdf="http://www.w3.org/1999/02/22-rdf-syntax-ns#"
   xmlns:svg="http://www.w3.org/2000/svg"
   xmlns="http://www.w3.org/2000/svg"
   xmlns:sodipodi="http://sodipodi.sourceforge.net/DTD/sodipodi-0.dtd"
   xmlns:inkscape="http://www.inkscape.org/namespaces/inkscape"
   viewBox="0 0 32 32"
   id="svg2"
   version="1.1"
   inkscape:version="0.91 r13725"
   sodipodi:docname="bubble.svg">
  <metadata
     id="metadata12">
    <rdf:RDF>
      <cc:Work
         rdf:about="">
        <dc:format>image/svg+xml</dc:format>
        <dc:type
           rdf:resource="http://purl.org/dc/dcmitype/StillImage" />
        <dc:title>bubble-empty</dc:title>
      </cc:Work>
    </rdf:RDF>
  </metadata>
  <defs
     id="defs10" />
  <sodipodi:namedview
     pagecolor="#ffffff"
     bordercolor="#666666"
     borderopacity="1"
     objecttolerance="10"
     gridtolerance="10"
     guidetolerance="10"
     inkscape:pageopacity="0"
     inkscape:pageshadow="2"
     inkscape:window-width="1366"
     inkscape:window-height="744"
     id="namedview8"
     showgrid="false"
     inkscape:zoom="7.375"
     inkscape:cx="16"
     inkscape:cy="10.576271"
     inkscape:window-x="0"
     inkscape:window-y="24"
     inkscape:window-maximized="1"
     inkscape:current-layer="svg2" />
  <title
     id="title4">bubble-empty</title>
  <path
     d="M 16 2 C 7.163 2 0 7.82 0 15 C -1.1842379e-15 19.079 2.3126406 22.720516 5.9316406 25.103516 C 5.9756406 25.396516 6 25.695 6 26 C 6 28.184 4.142 30.095531 2 31.144531 L 2 31.986328 C 5.966 31.895328 10.068859 31.278797 13.505859 27.841797 C 14.318859 27.945797 15.151 28 16 28 C 24.837 28 32 22.18 32 15 C 32 7.82 24.837 2 16 2 z M 14.458984 3.9980469 C 14.718515 3.9948232 14.978028 4.0015807 15.236328 4.0175781 C 19.826445 3.8120005 24.705582 5.4204855 27.726562 9.0058594 C 34.164155 16.274273 25.71727 26.144238 17.482422 25.939453 C 13.207133 25.033914 10.791504 27.930473 7.0058594 29.355469 C 9.4360678 25.922533 6.9757119 22.735241 4.0371094 20.697266 C -1.9844127 13.260261 6.4135419 4.0979818 14.458984 3.9980469 z "
     id="path6" />
</svg>
