<svg xmlns="http://www.w3.org/2000/svg" viewBox="0 0 32 32">
<title xmlns="http://www.w3.org/2000/svg">bluesky</title>
<path xmlns="http://www.w3.org/2000/svg" d="M 6.9364229,3.8088864 C 10.605146,6.5631324 14.551275,12.147596 16.000094,15.144544 17.449023,12.147816 21.394931,6.5630774 25.063765,3.8088864 27.710922,1.8215325 32,0.28383145 32,5.1768784 c 0,0.977208 -0.560273,8.2090556 -0.888877,9.3831176 -1.142229,4.081851 -5.304466,5.122949 -9.006844,4.492828 C 28.575965,20.15428 30.2223,23.8027 26.666845,27.45112 19.914333,34.380183 16.961523,25.712592 16.204562,23.49164 16.065859,23.084486 16.000955,22.894016 16,23.055979 15.99904,22.89401 15.93414,23.084489 15.795438,23.49164 15.038809,25.712592 12.086053,34.380404 5.3331549,27.45112 1.7776447,23.8027 3.4239247,20.15406 9.8957211,19.052824 6.1932325,19.682945 2.0309398,18.641842 0.88887755,14.559996 0.56026155,13.385823 0,6.1539764 0,5.1768784 0,0.28383145 4.2891886,1.8215325 6.9362352,3.8088864 Z"/>
</svg>
