<?xml version="1.0" encoding="UTF-8" standalone="no"?>
<svg
   viewBox="0 0 32 32"
   version="1.1"
   id="svg1"
   width="32"
   height="32"
   xmlns="http://www.w3.org/2000/svg"
   xmlns:svg="http://www.w3.org/2000/svg"
   xmlns:rdf="http://www.w3.org/1999/02/22-rdf-syntax-ns#"
   xmlns:cc="http://creativecommons.org/ns#"
   xmlns:dc="http://purl.org/dc/elements/1.1/">
  <defs
     id="defs1" />
  <title
     id="title1">bluesky</title>
  <path
     d="M 6.9364229,3.8088865 C 10.605146,6.5631325 14.551275,12.147596 16.000095,15.144544 17.449023,12.147816 21.394931,6.5630774 25.063765,3.8088865 27.710921,1.8215325 32,0.2838314 32,5.1768785 c 0,0.977208 -0.560273,8.2090555 -0.888877,9.3831175 -1.14223,4.081852 -5.304466,5.122949 -9.006844,4.492828 C 28.575965,20.15428 30.2223,23.8027 26.666845,27.45112 19.914333,34.380184 16.961523,25.712592 16.204563,23.49164 16.065859,23.084486 16.000955,22.894016 16,23.05598 15.99904,22.89401 15.93413,23.08449 15.795439,23.49164 15.038809,25.712592 12.086053,34.380404 5.3331549,27.45112 1.7776447,23.8027 3.4239247,20.15406 9.8957211,19.052824 6.1932325,19.682945 2.0309397,18.641842 0.88887755,14.559996 0.56026155,13.385824 0,6.1539765 0,5.1768785 0,0.2838314 4.2891887,1.8215325 6.9362352,3.8088865 Z"
     id="path1"
     style="stroke-width:1" />
  <metadata
     id="metadata1">
    <rdf:RDF>
      <cc:Work
         rdf:about="">
        <dc:title>bluesky</dc:title>
      </cc:Work>
    </rdf:RDF>
  </metadata>
</svg>
