<svg xmlns="http://www.w3.org/2000/svg" viewBox="0 0 32 32">
<title xmlns="http://www.w3.org/2000/svg">mastodon</title>
<path xmlns="http://www.w3.org/2000/svg" d="M 56.525858,0 C 42.030094,0.1185123 28.086264,1.6882305 19.96023,5.420146 c 0,0 -16.1163658,7.209087 -16.1163658,31.805886 0,5.632388 -0.1094754,12.366873 0.068904,19.508769 0.5852308,24.05433 4.4097297,47.761029 26.6497218,53.647549 10.254368,2.71417 19.05892,3.28281 26.149498,2.89307 12.858583,-0.71291 20.077,-4.58883 20.077,-4.58883 l -0.424162,-9.329775 c 0,0 -9.189032,2.897175 -19.508766,2.544075 -10.224435,-0.35065 -21.018411,-1.10237 -22.672085,-13.655505 -0.152722,-1.102655 -0.229084,-2.2821 -0.229084,-3.520366 0,0 10.037184,2.453461 22.757097,3.036249 7.777826,0.356754 15.071451,-0.45565 22.479689,-1.339601 14.206814,-1.696438 26.576893,-10.450005 28.131603,-18.448366 2.44966,-12.599565 2.24788,-30.747269 2.24788,-30.747269 0,-24.596799 -16.115465,-31.805886 -16.115465,-31.805886 C 85.330268,1.6882305 71.377775,0.1185123 56.882011,0 Z M 40.120453,19.218834 c 6.038018,0 10.609854,2.32074 13.633138,6.962879 l 2.939606,4.92708 2.939602,-4.92708 c 3.022677,-4.642139 7.59451,-6.962879 13.63314,-6.962879 5.218207,0 9.422759,1.834404 12.633585,5.412987 3.112473,3.578583 4.6622,8.416051 4.6622,14.50294 V 68.917378 H 78.762149 V 40.009931 c 0,-6.093609 -2.563783,-9.186598 -7.692189,-9.186598 -5.670264,0 -8.511874,3.668607 -8.511874,10.923514 V 57.5697 H 50.828306 V 41.746847 c 0,-7.254907 -2.842506,-10.923514 -8.51277,-10.923514 -5.128406,0 -7.692187,3.092989 -7.692187,9.186598 V 68.917378 H 22.823771 V 39.134761 c 0,-6.086889 1.550011,-10.924357 4.663097,-14.50294 3.210217,-3.578583 7.414768,-5.412987 12.633585,-5.412987 z"/>
</svg>
