<?xml version="1.0" encoding="UTF-8" standalone="no"?>
<svg
   viewBox="0 0 32 32"
   version="1.1"
   id="svg1"
   width="32"
   height="32"
   xmlns="http://www.w3.org/2000/svg"
   xmlns:svg="http://www.w3.org/2000/svg"
   xmlns:rdf="http://www.w3.org/1999/02/22-rdf-syntax-ns#"
   xmlns:cc="http://creativecommons.org/ns#"
   xmlns:dc="http://purl.org/dc/elements/1.1/">
  <defs
     id="defs1" />
  <title
     id="title1">mastodon</title>
  <path
     d="M 15.952855,0 C 11.861828,0.0334468 7.9265693,0.47645615 5.633222,1.5296856 c 0,0 -4.5483964,2.0345646 -4.5483964,8.9763274 0,1.589585 -0.030896,3.490207 0.019447,5.505808 0.1651651,6.788667 1.2445236,13.479224 7.5211435,15.140531 2.8940099,0.765998 5.3788509,0.926482 7.3799689,0.816489 3.628977,-0.2012 5.666175,-1.295071 5.666175,-1.295071 l -0.119707,-2.633069 c 0,0 -2.593349,0.817647 -5.505808,0.717995 -2.885563,-0.09896 -5.931863,-0.311114 -6.3985663,-3.853887 -0.043107,-0.311195 -0.064653,-0.64406 -0.064653,-0.993527 0,0 2.8327153,0.692422 6.4225583,0.856898 2.195074,0.10068 4.253498,-0.1286 6.344268,-0.378066 4.009478,-0.478772 7.500589,-2.949224 7.939362,-5.206538 0.69135,-3.555878 0.634403,-8.677563 0.634403,-8.677563 0,-6.9417628 -4.548143,-8.9763274 -4.548143,-8.9763274 C 24.0821,0.47645615 20.144396,0.0334468 16.053369,0 Z m -4.62997,5.4239819 c 1.704063,0 2.994336,0.6549644 3.847575,1.9650792 l 0.829621,1.3905314 0.829622,-1.3905314 c 0.853066,-1.3101148 2.143339,-1.9650792 3.847574,-1.9650792 1.472695,0 2.659312,0.5177096 3.565479,1.5276653 0.878409,1.0099556 1.315777,2.3751965 1.315777,4.0930518 v 8.405317 H 22.22843 v -8.158325 c 0,-1.7197514 -0.723557,-2.5926615 -2.170906,-2.5926615 -1.600275,0 -2.40224,1.0353624 -2.40224,3.0828585 v 4.465561 h -3.310405 v -4.465561 c 0,-2.0474961 -0.802218,-3.0828585 -2.402493,-3.0828585 -1.44735,0 -2.1709063,0.8729101 -2.1709063,2.5926615 v 8.158325 H 6.4413769 v -8.405317 c 0,-1.7178553 0.4374475,-3.0830962 1.3160296,-4.0930518 C 8.663401,5.9416915 9.8500184,5.4239819 11.322885,5.4239819 Z"
     id="path1"
     style="stroke-width:0.282223" />
  <metadata
     id="metadata1">
    <rdf:RDF>
      <cc:Work
         rdf:about="">
        <dc:title>mastodon</dc:title>
      </cc:Work>
    </rdf:RDF>
  </metadata>
</svg>
