<?xml version="1.0" encoding="UTF-8" standalone="no"?>
<!-- Created with Inkscape (http://www.inkscape.org/) -->

<svg
   xmlns:dc="http://purl.org/dc/elements/1.1/"
   xmlns:cc="http://creativecommons.org/ns#"
   xmlns:rdf="http://www.w3.org/1999/02/22-rdf-syntax-ns#"
   xmlns:svg="http://www.w3.org/2000/svg"
   xmlns="http://www.w3.org/2000/svg"
   xmlns:sodipodi="http://sodipodi.sourceforge.net/DTD/sodipodi-0.dtd"
   xmlns:inkscape="http://www.inkscape.org/namespaces/inkscape"
   width="248"
   height="82"
   viewBox="0 0 248 82"
   id="svg2"
   version="1.1"
   inkscape:version="0.91 r13725"
   sodipodi:docname="dare.svg">
  <title
     id="title4159">dare</title>
  <defs
     id="defs4" />
  <sodipodi:namedview
     id="base"
     pagecolor="#ffffff"
     bordercolor="#666666"
     borderopacity="1.0"
     inkscape:pageopacity="0.0"
     inkscape:pageshadow="2"
     inkscape:zoom="1.3453125"
     inkscape:cx="265.81879"
     inkscape:cy="-68.234359"
     inkscape:document-units="px"
     inkscape:current-layer="layer1"
     showgrid="false"
     units="px"
     inkscape:window-width="1366"
     inkscape:window-height="744"
     inkscape:window-x="0"
     inkscape:window-y="24"
     inkscape:window-maximized="1">
    <inkscape:grid
       type="xygrid"
       id="grid4161" />
  </sodipodi:namedview>
  <metadata
     id="metadata7">
    <rdf:RDF>
      <cc:Work
         rdf:about="">
        <dc:format>image/svg+xml</dc:format>
        <dc:type
           rdf:resource="http://purl.org/dc/dcmitype/StillImage" />
        <dc:title>ludum-dare</dc:title>
      </cc:Work>
    </rdf:RDF>
  </metadata>
  <g
     inkscape:label="Layer 1"
     inkscape:groupmode="layer"
     id="layer1"
     transform="translate(0,-970.36214)">
    <path
       inkscape:connector-curvature="0"
       id="path4151"
       d="m 0,1050.4627 33.09365,0 c 50.50101,0 50.50101,-78.20947 0,-78.20947 l -33.09365,0 z m 28.93752,-30.2782 0,-17.9882 4.71477,0 c 9.94378,0 10.05551,17.9882 0,17.9882 z"
       sodipodi:nodetypes="cssccccssc" />
    <path
       d="m 105.53895,985.88362 c -12.56007,-0.17879 -24.71378,7.77743 -29.60352,19.34178 -5.11286,11.3948 -2.76972,25.6319 5.79297,34.7403 6.4157,7.1378 16.10855,10.9705 25.66016,10.4863 1.20841,0 2.41658,0 3.625,0 l 0,0.01 26.81445,0 c -0.0409,-11.4554 0.0831,-22.9139 -0.0664,-34.3671 -0.64579,-12.787 -9.7352,-24.55669 -21.89258,-28.51762 -3.32002,-1.12424 -6.82531,-1.69524 -10.33007,-1.69336 z m -0.13086,26.72658 c 2.35881,0.016 4.74105,1.4822 5.35937,3.9277 0.35898,2.3729 0.27063,4.7894 0.23438,7.2012 -2.17556,0.014 -4.35195,0.016 -6.51954,-0.082 -4.23948,-0.616 -6.08765,-6.5054 -2.91015,-9.4082 1.01264,-1.1358 2.42065,-1.6483 3.83594,-1.6387 z"
       id="path4153"
       inkscape:connector-curvature="0" />
    <path
       inkscape:connector-curvature="0"
       id="path4155"
       d="m 170.72844,987.78341 c -17.54128,0 -29.83135,11.50797 -29.83135,29.04929 0,14.9715 0,18.6585 0,33.63 l 27.48506,0 c 0,-16.3122 0,-18.4351 0,-34.7473 0,-1.0056 0.55864,-1.6759 1.67592,-1.6759 l 10.61415,0 0,-26.25609 -9.94378,0 z" />
    <path
       d="m 215.53895,985.88362 c -12.56008,-0.17879 -24.71305,7.77675 -29.60279,19.34108 -5.14833,11.4682 -2.73461,25.8111 5.94851,34.9169 6.44915,7.0808 16.13737,10.8291 25.66348,10.3201 10.09329,0 20.18657,0 30.27986,0 -7.97526,-8.9101 -15.95052,-17.8203 -23.92578,-26.7304 7.8125,0 15.625,0 23.4375,0 2.36926,-12.6347 -3.68546,-26.31151 -14.70241,-32.9739 -5.09231,-3.19432 -11.09124,-4.8842 -17.09837,-4.87378 z m 0,26.70308 c 4.09124,-0.167 7.0783,4.8634 4.84643,8.3498 -1.94525,3.8851 -8.09485,3.4531 -9.85066,-0.3605 -1.67925,-3.4403 1.04715,-8.0998 5.00423,-7.9893 z"
       id="path4153-7"
       inkscape:connector-curvature="0" />
  </g>
</svg>
