<?xml version="1.0" encoding="UTF-8" standalone="no"?>
<!-- Created with Inkscape (http://www.inkscape.org/) -->

<svg
   xmlns:dc="http://purl.org/dc/elements/1.1/"
   xmlns:cc="http://creativecommons.org/ns#"
   xmlns:rdf="http://www.w3.org/1999/02/22-rdf-syntax-ns#"
   xmlns:svg="http://www.w3.org/2000/svg"
   xmlns="http://www.w3.org/2000/svg"
   xmlns:sodipodi="http://sodipodi.sourceforge.net/DTD/sodipodi-0.dtd"
   xmlns:inkscape="http://www.inkscape.org/namespaces/inkscape"
   width="365.5"
   height="82"
   viewBox="0 0 365.5 82"
   id="svg2"
   version="1.1"
   inkscape:version="0.91 r13725"
   sodipodi:docname="LudumDare-Logo2016.svg">
  <title
     id="title4159">ludum</title>
  <defs
     id="defs4" />
  <sodipodi:namedview
     id="base"
     pagecolor="#ffffff"
     bordercolor="#666666"
     borderopacity="1.0"
     inkscape:pageopacity="0.0"
     inkscape:pageshadow="2"
     inkscape:zoom="0.95127959"
     inkscape:cx="257.31095"
     inkscape:cy="125.0457"
     inkscape:document-units="px"
     inkscape:current-layer="layer1"
     showgrid="false"
     units="px"
     inkscape:window-width="1366"
     inkscape:window-height="744"
     inkscape:window-x="0"
     inkscape:window-y="24"
     inkscape:window-maximized="1">
    <inkscape:grid
       type="xygrid"
       id="grid4161" />
  </sodipodi:namedview>
  <metadata
     id="metadata7">
    <rdf:RDF>
      <cc:Work
         rdf:about="">
        <dc:format>image/svg+xml</dc:format>
        <dc:type
           rdf:resource="http://purl.org/dc/dcmitype/StillImage" />
        <dc:title>ludum-dare</dc:title>
      </cc:Work>
    </rdf:RDF>
  </metadata>
  <g
     inkscape:label="Layer 1"
     inkscape:groupmode="layer"
     id="layer1"
     transform="translate(0,-970.36214)">
    <path
       inkscape:connector-curvature="0"
       id="path4141"
       d="m -1.9e-6,1050.4627 57.6515969,0 0,-28.2671 -28.602348,0 0,-49.94237 -29.0492489,0 0,78.20947 z" />
    <path
       inkscape:connector-curvature="0"
       id="path4143"
       d="m 97.108994,1018.732 c 0,7.821 -9.720325,7.821 -9.720325,0 l 0,-30.50168 0,-0.44691 -27.708514,0 0,32.06589 c 0,43.2387 65.137355,43.2387 65.137355,0 l 0,-32.06589 -27.708516,0 0,0.44691 0,30.50168 z" />
    <path
       d="m 166.5293,972.25276 0,13.5586 -6,0.1914 c -18.18299,0.1624 -32.76953,14.95344 -32.76953,33.17574 0,18.3234 14.74694,33.1836 33.07031,33.1836 18.32338,0 33.18359,-14.8602 33.18359,-33.1836 l 0,-46.92574 -27.48437,0 z m -6,41.24414 6,0 0,5.6816 c -2e-5,3.1284 -2.45911,5.6993 -5.69922,5.6993 -3.12838,0 -5.58594,-2.5709 -5.58594,-5.6993 0,-3.0265 2.30252,-5.522 5.28516,-5.6816 z"
       id="path4145"
       inkscape:connector-curvature="0" />
    <path
       inkscape:connector-curvature="0"
       id="path4147"
       d="m 234.58666,1018.732 c 0,7.821 -9.72033,7.821 -9.72033,0 l 0,-30.50168 0,-0.44691 -27.70851,0 0,32.06589 c 0,43.2387 65.13735,43.2387 65.13735,0 l 0,-32.06589 -27.70851,0 0,0.44691 0,30.50168 z" />
    <path
       inkscape:connector-curvature="0"
       id="path4149"
       d="m 328.25127,1018.732 c 0,-6.9271 8.71477,-6.8154 8.71477,-0.1117 l 0,31.3955 0,0.4469 27.48506,0 0,-32.9597 c 0,-22.90419 -16.53572,-31.73069 -32.17763,-31.61896 -6.14503,0.11172 -12.96043,2.34628 -17.31782,7.03885 -5.02775,-5.02775 -11.39624,-7.03885 -17.653,-7.03885 -15.53018,0 -31.84245,8.15613 -31.84245,31.61896 l 0,32.9597 27.48506,0 0,-31.8424 c 0,-6.7037 8.60305,-6.8154 8.60305,0.1117 l 0,31.7307 26.70296,0 0,-31.7307 z" />
  </g>
</svg>
