<svg xmlns:rdf="http://www.w3.org/1999/02/22-rdf-syntax-ns#" xmlns="http://www.w3.org/2000/svg" height="320" viewBox="0 0 320 320" width="320" version="1.1" xmlns:cc="http://creativecommons.org/ns#" xmlns:dc="http://purl.org/dc/elements/1.1/">
<defs>
<clipPath id="a" clipPathUnits="userSpaceOnUse">
<circle cy="160" cx="160" r="160" fill="#666767"/>
</clipPath>
</defs>
<g clip-path="url(#a)">
<circle clip-path="none" cx="160" cy="160" r="160" fill="#2c80bb"/>
<path d="m119 87.1-93.2 25.9 43.5 43-44.5 74 90.2 90h205v-207l-26-25.9-37 36.9-24-24.6-33 13.6-27-26.1-35.7-1.63 4.3 24.5z" fill-opacity=".231" fill-rule="evenodd" clip-path="none"/>
<g stroke-opacity="0" clip-path="none" transform="translate(-2.7)" fill="#e74c3c">
<path d="m32.9 232c-2.58-0.005-4.47-0.542-5.69-1.63-1.08-1.22-1.63-3.12-1.63-5.69v-15.6c0-2.58 0.407-4.74 1.22-6.71s2.9-5.03 3.86-6.9c0.967-1.87 51.8-80.3 51.8-80.3l-47.8-0.25c-2.58-0.0135-4.47-0.542-5.69-1.63-1.08-1.22-1.69-3.12-1.63-5.69 0.159-7.38-0.0103-22.2-0.0103-22.2 29.8 0.114 59.5 0.0461 89.3 0.0461 2.58 0 4.4 0.61 5.49 1.83 1.22 1.08 1.8 2.91 1.83 5.49l0.172 14.5c0.0323 2.71-0.407 5.08-1.22 7.12-0.813 1.9-3.11 4.68-3.86 5.86l-52.3 81.5 51.7 0.333c2.58 0.0166 4.4 0.61 5.49 1.83 1.22 1.08 1.83 2.91 1.83 5.49l-0.0632 22.6s-64.5 0.0999-92.8 0.0448z"/>
<path d="m264 85.2 27.8 0.208c2.58 0.0193 4.4 0.61 5.49 1.83 1.22 1.08 1.83 2.91 1.83 5.49l-25.1 138h-31.7c-4.11 0.0506-7.94-4.54-8.27-6.75-0.333-2.21-9.59-65.6-12.9-77-0.492-1.69-1.35-1.01-1.51-0.103l-14.8 83.9-31.4-0.0834c-2.17-0.006-4.07-0.678-5.69-2.03-1.49-1.36-2.58-3.12-3.25-5.29l-24.1-139 30.4-0.0679c2.57-0.0536 4.4 0.61 5.49 1.83 1.22 1.08 1.83 5.49 1.83 5.49l9.81 103 17.3-97.8 22.7-0.118c2.58-0.0134 4.74 0.474 6.51 1.42 1.76 0.949 2.94 3.73 3.48 4.88 0.542 1.15 15 90.8 15 90.8z"/>
</g>
</g>
<path d="m-319 317v159a160 159 0 0 1 160 -159h-160zm160 0a160 159 0 0 1 159 159 160 159 0 0 1 -160 159 160 159 0 0 1 -159 -159v161h320v-320h-160z" fill="#fff"/>
</svg>
